<svg id="map" xmlns="http://www.w3.org/2000/svg" viewBox="0 0 154.94 372.53"><defs><style>.cls-1,.cls-2{fill:#f5f4f8;}.cls-1,.cls-3{stroke:#b3adb8;stroke-linecap:square;stroke-miterlimit:3.86;stroke-width:0.88px;}.cls-3{fill:none;}.cls-4{fill:#575559;}.cls-5{font-size:11px;fill:#282629;font-family:OpenSans-Semibold, Open Sans;font-weight:700;}</style></defs><title>PEC_FloorPlans_02_cr</title><path class="cls-1" d="M150.91,218.9h-32.4V56.54h36.42C151.17,98.62,149.55,180.44,150.91,218.9Z"/><path class="cls-2" d="M139.15,271a2.07,2.07,0,0,0-2.16-1.88l-5.09.29a2,2,0,0,0-1.86,2.11l1.51,22.26a2,2,0,0,0,2.13,1.82l5.45-.48A2,2,0,0,0,141,293Z"/><path class="cls-3" d="M139.15,271a2.07,2.07,0,0,0-2.16-1.88l-5.09.29a2,2,0,0,0-1.86,2.11l1.51,22.26a2,2,0,0,0,2.13,1.82l5.45-.48A2,2,0,0,0,141,293Z"/><path class="cls-1" d="M137.84,336.56c-9.75-68.62-16.27-212.58-3.32-301.34H94.17V0h-70V304.61a2.79,2.79,0,0,1-2.78,2.78H0v65.14H105.58v-36Z"/><g id="clickable-Meeting_Room_5" data-name="clickable-Meeting Room 5"><rect class="cls-2" x="39.05" y="210" width="63.58" height="48.96"/><path class="cls-4" d="M102.13,210.5v48H39.55v-48h62.58m1-1H38.55v50h64.58v-50Z"/></g><g id="clickable-Meeting_Room_4" data-name="clickable-Meeting Room 4"><rect class="cls-2" x="39.05" y="258.64" width="63.58" height="49.18"/><path class="cls-4" d="M102.13,259.14v48.18H39.55V259.14h62.58m1-1H38.55v50.18h64.58V258.14Z"/></g><g id="clickable-Meeting_Room_3" data-name="clickable-Meeting Room 3"><rect class="cls-2" x="39.05" y="160.74" width="63.58" height="49.35"/><path class="cls-4" d="M102.13,161.24V209.6H39.55V161.24h62.58m1-1H38.55V210.6h64.58V160.24Z"/></g><g id="clickable-Meeting_Room_2" data-name="clickable-Meeting Room 2"><rect class="cls-2" x="39.05" y="111.82" width="63.58" height="49.42"/><path class="cls-4" d="M102.13,112.32v48.42H39.55V112.32h62.58m1-1H38.55v50.42h64.58V111.32Z"/></g><g id="clickable-Meeting_Room_1" data-name="clickable-Meeting Room 1"><rect class="cls-2" x="39.05" y="64.5" width="63.58" height="47.86"/><path class="cls-4" d="M102.13,65v46.86H39.55V65h62.58m1-1H38.55v48.86h64.58V64Z"/></g><text class="cls-5" transform="translate(67.71 97.09)">1</text><text class="cls-5" transform="translate(67.71 145.22)">2</text><text class="cls-5" transform="translate(67.71 193.35)">3</text><text class="cls-5" transform="translate(67.71 241.48)">4</text><text class="cls-5" transform="translate(67.71 289.6)">5</text></svg>