<svg id="Level_1" data-name="Level 1" xmlns="http://www.w3.org/2000/svg" viewBox="0 0 357.6 237"><defs><style>.cls-1,.cls-6{fill:#f5f4f8;}.cls-2,.cls-3,.cls-4,.cls-5{fill:none;}.cls-2{stroke:#000;stroke-width:0.22px;}.cls-2,.cls-5,.cls-6,.cls-8{stroke-miterlimit:3.86;}.cls-3{stroke:#fff;stroke-width:0.84px;stroke-dasharray:0.84 0.84;}.cls-4{stroke:#7e702d;stroke-linecap:round;stroke-linejoin:round;stroke-width:0.02px;}.cls-5,.cls-6{stroke:#b3adb8;}.cls-5{stroke-linecap:square;stroke-width:0.88px;}.cls-7{fill:#c4d792;stroke:#91b041;stroke-miterlimit:10;}.cls-8{fill:#ffdd93;stroke:#ffb618;}.cls-9{isolation:isolate;font-size:11px;fill:#282629;font-family:OpenSans-Semibold, Open Sans;font-weight:700;}</style></defs><title>ACC_FloorPlans</title><polygon class="cls-1" points="31.6 3.2 31.6 1.7 27.9 1.7 24.2 1.7 20.5 1.7 16.8 1.7 13.1 1.7 9.4 1.7 5.7 1.7 2 1.7 2 4.2 2 6.7 2 9.2 2 11.7 2 14.2 2 16.7 2 19.2 2 21.7 3.6 21.7 3.2 36.7 13.5 37 13.6 46.6 18.2 46.7 18.1 85.3 13.1 85.3 13.1 88.3 13.1 91.2 13.1 94.2 13.1 97.1 13.1 100.1 13.1 103 13.1 106 13.1 108.9 12.6 108.9 12.2 108.9 11.7 108.9 11.3 108.9 10.9 109 10.4 109 10 109 9.6 109 9.5 110.2 9.5 111.4 9.5 112.5 9.5 113.7 9.5 114.9 9.5 116.1 9.5 117.3 9.5 118.5 8.8 118.8 8.1 119.2 7.5 119.5 6.8 119.9 6.2 120.2 5.5 120.6 4.8 120.9 4.2 121.3 3.8 121.9 3.3 122.5 2.9 123.2 2.5 123.8 2 124.4 1.6 125.1 1.2 125.7 0.7 126.3 0.7 127 0.7 127.8 0.8 128.5 0.8 129.2 0.8 129.9 0.8 130.6 0.8 131.3 0.8 132.1 1.2 132.7 1.6 133.3 2.1 133.9 2.5 134.5 2.9 135.1 3.4 135.7 3.8 136.3 4.2 136.9 4.8 137.2 5.4 137.6 6 137.9 6.6 138.2 7.2 138.5 7.8 138.8 8.4 139.2 9 139.5 9.7 139.5 10.4 139.5 11.1 139.5 11.8 139.5 12.5 139.5 13.3 139.5 14 139.5 14.7 139.5 14.7 141.3 14.7 143 14.7 144.8 14.7 146.6 14.7 148.4 14.8 150.1 14.8 151.9 14.8 153.7 16.4 155.3 17.9 156.8 19.5 158.4 21.1 159.9 22.7 161.5 24.3 163.1 25.9 164.6 27.4 166.2 29.8 166.8 32.2 167.4 34.6 168 37 168.7 39.4 169.3 41.8 169.9 44.2 170.5 46.6 171.1 47.3 171.8 48 172.4 48.6 173.1 49.3 173.7 50 174.4 50.6 175 51.3 175.6 52 176.3 53.3 176.1 54.7 175.9 56 175.8 57.4 175.6 58.8 175.4 60.1 175.3 61.5 175.1 62.8 174.9 64.3 174.9 65.8 174.9 67.2 174.9 68.7 174.9 70.2 174.9 71.6 174.9 73.1 174.9 74.6 174.9 75.9 175.9 77.3 176.9 78.6 177.9 80 178.9 81.3 179.9 82.6 180.9 84 181.9 85.3 182.9 95.4 183.9 95.4 163.5 51.6 163.4 41.9 154.3 41.9 104.3 40.8 98.6 40.8 87.6 40.8 21.7 117.2 21.7 117.2 43.8 248.1 43.7 248.1 33.4 270.2 33.4 270.3 30.1 301.9 29.9 302.1 33.3 324.8 33.3 324.9 87.8 328.4 88 328.5 108.7 323.8 108.8 324.1 143.4 335.6 143.4 335.8 156.9 335.8 166.5 335.8 176.1 335.8 219 346.7 219 346.7 197.5 349.8 197.5 349.9 153.6 356.5 153.3 356.5 141.8 349.9 141.8 349.9 130.8 355.2 130.8 355.2 127.7 355.8 127.7 355.6 105.1 355 105 355 102 350.1 101.6 350.1 91.2 356.4 91 356.3 79 346.1 79 346.3 66.2 347.1 66.2 348 66.2 348.8 66.2 349.7 66.2 350.5 66.2 351.4 66.2 352.2 66.2 353.1 66.2 353.1 66 353.1 65.8 353.1 65.7 353.1 65.5 353.1 65.4 353.1 65.2 353.1 65.1 353.1 64.9 353.2 64.9 353.3 64.9 353.4 64.9 353.5 64.9 353.6 64.9 353.7 64.9 353.8 64.9 353.9 64.9 353.9 58.7 353.9 52.4 353.9 46.2 353.9 40 353.9 33.7 353.9 27.5 353.9 21.2 353.9 15 347.9 15 348.3 12.8 341 12.8 341.2 15.3 335.5 15.3 335.1 16.8 328.4 16.8 328.4 6.8 317.1 6.6 317.1 12.8 275.8 12.9 275.8 4 258.1 4 258.2 12.9 249.5 12.9 249.6 1.5 233.3 1.5 233.4 13.3 226.9 13.3 226.9 16.8 221.5 16.8 221.4 15.4 204.5 15.4 204.5 19 166.7 19 166.4 15.2 157.2 13.9 153.5 13.4 149.8 12.9 146.1 12.4 142.4 11.9 138.7 11.4 135 10.9 131.4 10.4 131.4 8.1 125.5 7.8 125.6 5 120.5 5.4 103.5 4.6 95.2 4.6 95.1 11.7 52.2 11.7 52 3.9 31.6 3.2"/><rect class="cls-1" x="27.1" y="40.8" width="3.2" height="3.1"/><polygon class="cls-2" points="103.9 1.6 120.4 1.6 120.5 14.2 116.3 14.2 116.3 15.2 107.4 15.2 107.4 14.2 104 14.2 103.9 1.6"/><polygon class="cls-2" points="31.7 2.8 46.2 2.8 46.2 13.7 43.2 13.7 43.2 14.7 35 14.7 35 13.7 31.7 13.7 31.7 2.8"/><line class="cls-3" x1="117.1" y1="44" x2="117.1" y2="97.8"/><line class="cls-4" x1="317.1" y1="6.6" x2="328.1" y2="6.6"/><path class="cls-5" d="M52,11.7V3.8H46.2v-1H31.7V1.6H1.9V22.1H3.1L3.2,37H13.5l.1,9.6,4.6.1-.1,38.2-5.3.1v23.8H9.4v9.5l-5.5,2.8L.6,126.4v5.7l3.4,5,4.8,2.7h5.7v14l12.9,12.6,19.1,4.9,5.4,5.2L63,175.1H74.5L85.2,183l10.2.9,5.7,6.6,5.3,3.4,5.7,8.2-1.6,6.8,1.3,9.7,3.1,5.7h2.2V231h37.1v-.3h29.6l.1-1.2h12.5l.1,1.1h62.2l-.1,5.7h13.6v-17l63.6-.3h10.9V197.6h3.2l.1-44.1h6.5V141.8H350V130.9h5.3v-3.1h.6V105h-.7v-3.2h-5.3V91h6.7V78.9H346.3V66.3h6.8V65h.9l.1-50h-5.9l.1-2.2H341v2.4h-6v1.6h-6.5V6.5H316.9v6.4h-41V4H258.2v8.8h-8.5V1.5H233.4V13.2H227v3.5h-5.5V15.4H204.6V19H166.8V15.2l-35.4-4.9m-.1.1V7.8h-5.6m0,0V4.9h-5.6l.1-3-16-.2V4.5l-9-.1v7.3H52"/><polygon class="cls-4" points="339.4 226.3 339.5 226.3 339.5 226.3 339.4 226.3"/><polygon id="clickable-Meeting_Room_2" data-name="clickable-Meeting Room 2" class="cls-6" points="31.6 2.8 48.3 2.8 48.3 15.3 44.8 15.3 44.8 16.4 35.4 16.4 35.4 15.3 31.6 15.3 31.6 2.8"/><polygon id="clickable-Meeting_Room_1" data-name="clickable-Meeting Room 1" class="cls-6" points="23.8 31.2 27.2 31.2 27.1 30 39.9 30 40.8 30 40.8 31.3 40.8 43.2 40.7 44.1 39.9 44.2 27.5 44.2 27.4 40.4 23.8 40.4 23.8 31.2"/><polygon id="clickable-Meeting_Room_3" data-name="clickable-Meeting Room 3" class="cls-6" points="103.9 1.6 120.4 1.6 120.5 14.2 116.3 14.2 116.3 15.2 107.4 15.2 107.4 14.2 104 14.2 103.9 1.6"/><polygon id="clickable-Exhibit_Hall_1" data-name="clickable-Exhibit Hall 1" class="cls-7" points="117.1 21.7 40.8 21.7 40.8 98.6 117 98.7 117.1 21.7"/><polygon id="clickable-Exhibit_Hall_2" data-name="clickable-Exhibit Hall 2" class="cls-7" points="117.1 43.7 117 108.9 117 108.9 117 142.2 160.9 142.2 160.9 43.7 160.9 43.7 117.1 43.7"/><polygon id="clickable-Exhibit_Hall_3" data-name="clickable-Exhibit Hall 3" class="cls-7" points="160.9 43.7 160.9 108.9 160.8 108.9 160.9 142.2 226.9 142.2 226.9 43.7 160.9 43.7"/><polygon id="clickable-Exhibit_Hall_4" data-name="clickable-Exhibit Hall 4" class="cls-7" points="269.9 142.3 226.9 142.2 226.9 43.7 248.1 43.7 248.1 33.4 270.2 33.4 270.2 29.9 302.1 29.9 302.1 33.3 324.8 33.3 324.9 87.8 328.8 87.8 328.8 108.8 323.8 108.8 323.8 143.4 269.9 142.3"/><rect id="clickable-Exhibit_Hall_5" data-name="clickable-Exhibit Hall 5" class="cls-7" x="269.9" y="142.3" width="65.8" height="87.2"/><polygon id="clickable-Ballroom_B" data-name="clickable-Ballroom B" class="cls-8" points="66.9 163.4 51.5 163.4 41.9 154.3 41.9 141.7 66.9 141.7 66.9 163.4"/><polygon id="clickable-Ballroom_A" data-name="clickable-Ballroom A" class="cls-8" points="95.4 141.7 41.9 141.7 41.9 104.3 95.3 104.2 95.4 141.7"/><rect id="clickable-Ballroom_C" data-name="clickable-Ballroom C" class="cls-8" x="66.9" y="141.7" width="28.5" height="21.7"/><text class="cls-9" transform="translate(68.61 64.36)">EH1</text><text class="cls-9" transform="translate(30.16 41.26)">1</text><text class="cls-9" transform="translate(36.81 13.76)">2</text><text class="cls-9" transform="translate(109.06 12.56)">3</text><text class="cls-9" transform="translate(65.01 127.11)">A</text><text class="cls-9" transform="translate(50.77 156.71)">B</text><text class="cls-9" transform="translate(77.66 156.71)">C</text><text class="cls-9" transform="translate(128.61 97.11)">EH2</text><text class="cls-9" transform="translate(183.51 97.11)">EH3</text><text class="cls-9" transform="translate(267.51 90.81)">EH4</text><text class="cls-9" transform="translate(292.46 190.06)">EH5</text></svg>