<?xml version="1.0" standalone="yes"?><svg xmlns="http://www.w3.org/2000/svg" id="Level_1" data-name="Level 1" viewBox="0 0 392.63 270.38" style="zoom: 1;"><defs><style>.cls-1{fill:#ccc;}.cls-2{fill:#f5f4f8;}.cls-3,.cls-4,.cls-5,.cls-6{fill:none;}.cls-3{stroke:#000;stroke-width:0.22px;}.cls-3,.cls-6,.cls-9{stroke-miterlimit:3.86;}.cls-4{stroke:#fff;stroke-width:0.84px;stroke-dasharray:0.84 0.84;}.cls-5{stroke:#7e702d;stroke-linecap:round;stroke-linejoin:round;stroke-width:0.02px;}.cls-6{stroke:#b3adb8;stroke-linecap:square;stroke-width:0.88px;}.cls-7{fill:#9fd8f4;stroke:#52a5c6;}.cls-7,.cls-8{stroke-miterlimit:10;}.cls-8{fill:#c4d792;stroke:#91b041;}.cls-9{fill:#ffdd93;stroke:#ffb618;}.cls-10,.cls-11,.cls-12{isolation:isolate;font-family:OpenSans-Semibold, Open Sans;font-weight:700;}.cls-10{font-size:11px;}.cls-10,.cls-11{fill:#282629;}.cls-11,.cls-12{font-size:8px;}.cls-12,.cls-13{fill:#756c7d;}.cls-12{letter-spacing:0.1em;}</style></defs><title>level-1</title><path class="cls-1" d="M35.77,85.29l0,16.23-5.3.1v23.8H27v9.5l-5.5,2.8-3.3,5.3v5.7l3.4,5,4.8,2.7h5.7v14L45,183l19.1,4.9,5.4,5.2,11.1-1.4h11.5l10.7,7.9,10.2.9,5.7,6.6,5.3,3.4,5.7,8.2-1.6,6.8,1.3,9.7,3.1,5.7h2.2v6.7h37.1v-.3h29.6l.1-1.2H214l.1,1.1h62.2l-.1,5.7h13.6V112L35.77,85.29"></path><polygon class="cls-2" points="49.23 19.82 49.23 18.32 45.52 18.32 41.83 18.32 38.13 18.32 34.42 18.32 30.73 18.32 27.02 18.32 23.32 18.32 19.63 18.32 19.63 20.82 19.63 23.32 19.63 25.82 19.63 28.32 19.63 30.82 19.63 33.33 19.63 35.83 19.63 38.33 21.23 38.33 20.82 53.33 31.13 53.63 31.23 63.23 35.83 63.33 35.73 101.92 30.73 101.92 30.73 104.92 30.73 107.83 30.73 110.83 30.73 113.72 30.73 116.72 30.73 119.63 30.73 122.63 30.73 125.53 30.23 125.53 29.82 125.53 29.32 125.53 28.93 125.53 28.52 125.63 28.02 125.63 27.63 125.63 27.23 125.63 27.13 126.83 27.13 128.03 27.13 129.13 27.13 130.32 27.13 131.53 27.13 132.72 27.13 133.93 27.13 135.13 26.43 135.43 25.73 135.82 25.13 136.13 24.43 136.53 23.82 136.82 23.13 137.22 22.43 137.53 21.82 137.93 21.43 138.53 20.93 139.13 20.52 139.82 20.13 140.43 19.63 141.03 19.23 141.72 18.82 142.32 18.32 142.93 18.32 143.63 18.32 144.43 18.43 145.13 18.43 145.82 18.43 146.53 18.43 147.22 18.43 147.93 18.43 148.72 18.82 149.32 19.23 149.93 19.73 150.53 20.13 151.13 20.52 151.72 21.02 152.32 21.43 152.93 21.82 153.53 22.43 153.82 23.02 154.22 23.63 154.53 24.23 154.82 24.82 155.13 25.43 155.43 26.02 155.82 26.63 156.13 27.32 156.13 28.02 156.13 28.73 156.13 29.43 156.13 30.13 156.13 30.93 156.13 31.63 156.13 32.33 156.13 32.33 157.93 32.33 159.63 32.33 161.43 32.33 163.22 32.33 165.03 32.42 166.72 32.42 168.53 32.42 170.32 34.02 171.93 35.52 173.43 37.13 175.03 38.73 176.53 40.33 178.13 41.92 179.72 43.52 181.22 45.02 182.82 47.42 183.43 49.83 184.03 52.23 184.63 54.63 185.32 57.02 185.93 59.42 186.53 61.83 187.13 64.22 187.72 64.92 188.43 65.63 189.03 66.22 189.72 66.92 190.32 67.63 191.03 68.22 191.63 68.92 192.22 69.63 192.93 70.92 192.72 72.33 192.53 73.63 192.43 75.03 192.22 76.42 192.03 77.72 191.93 79.13 191.72 80.42 191.53 81.92 191.53 83.42 191.53 84.83 191.53 86.33 191.53 87.83 191.53 89.22 191.53 90.72 191.53 92.22 191.53 93.53 192.53 94.92 193.53 96.22 194.53 97.63 195.53 98.92 196.53 100.22 197.53 101.63 198.53 102.92 199.53 113.03 200.53 113.03 180.13 69.22 180.03 59.52 170.93 59.52 120.92 58.42 115.22 58.42 104.22 58.42 38.33 134.82 38.33 134.82 60.42 265.73 60.33 265.73 50.02 287.82 50.02 287.93 46.73 319.52 46.52 319.73 49.92 342.43 49.92 342.52 104.42 346.02 104.63 346.13 125.33 341.43 125.42 341.73 160.03 353.23 160.03 353.43 173.53 353.43 183.13 353.43 192.72 353.43 235.63 364.32 235.63 364.32 214.13 367.43 214.13 367.52 170.22 374.13 169.93 374.13 158.43 367.52 158.43 367.52 147.43 372.82 147.43 372.82 144.32 373.43 144.32 373.23 121.72 372.63 121.63 372.63 118.63 367.73 118.22 367.73 107.83 374.02 107.63 373.93 95.63 363.73 95.63 363.93 82.83 364.73 82.83 365.63 82.83 366.43 82.83 367.32 82.83 368.13 82.83 369.02 82.83 369.82 82.83 370.73 82.83 370.73 82.63 370.73 82.42 370.73 82.33 370.73 82.13 370.73 82.03 370.73 81.83 370.73 81.72 370.73 81.53 370.82 81.53 370.93 81.53 371.02 81.53 371.13 81.53 371.23 81.53 371.32 81.53 371.43 81.53 371.52 81.53 371.52 75.33 371.52 69.03 371.52 62.83 371.52 56.63 371.52 50.33 371.52 44.13 371.52 37.83 371.52 31.63 365.52 31.63 365.93 29.43 358.63 29.43 358.82 31.93 353.13 31.93 352.73 33.42 346.02 33.42 346.02 23.43 334.73 23.23 334.73 29.43 293.43 29.52 293.43 20.63 275.73 20.63 275.82 29.52 267.13 29.52 267.23 18.13 250.93 18.13 251.03 29.93 244.53 29.93 244.53 33.42 239.13 33.42 239.03 32.02 222.13 32.02 222.13 35.63 184.32 35.63 184.03 31.82 174.82 30.52 171.13 30.02 167.43 29.52 163.72 29.02 160.03 28.52 156.32 28.02 152.63 27.52 149.03 27.02 149.03 24.73 143.13 24.43 143.22 21.63 138.13 22.02 121.13 21.23 112.83 21.23 112.72 28.32 69.83 28.32 69.63 20.52 49.23 19.82"></polygon><rect class="cls-2" x="44.73" y="57.42" width="3.2" height="3.1"></rect><polygon class="cls-3" points="121.53 18.23 138.03 18.23 138.13 30.82 133.93 30.82 133.93 31.82 125.03 31.82 125.03 30.82 121.63 30.82 121.53 18.23"></polygon><polygon class="cls-3" points="49.33 19.43 63.83 19.43 63.83 30.32 60.83 30.32 60.83 31.32 52.63 31.32 52.63 30.32 49.33 30.32 49.33 19.43"></polygon><line class="cls-4" x1="134.72" y1="60.63" x2="134.72" y2="114.43"></line><line class="cls-5" x1="334.73" y1="23.22" x2="345.73" y2="23.22"></line><path class="cls-6" d="M69.63,28.32v-7.9h-5.8v-1H49.33v-1.2H19.52v20.5h1.2l.1,14.9h10.3l.1,9.6,4.6.1-.1,38.2-5.3.1v23.8H27v9.5l-5.5,2.8-3.3,5.3v5.7l3.4,5,4.8,2.7h5.7v14L45,183l19.1,4.9,5.4,5.2,11.1-1.4h11.5l10.7,7.9,10.2.9,5.7,6.6,5.3,3.4,5.7,8.2-1.6,6.8,1.3,9.7,3.1,5.7h2.2v6.7h37.1v-.3h29.6l.1-1.2H214l.1,1.1h62.2l-.1,5.7h13.6v-17l63.6-.3h10.9v-21.4h3.2l.1-44.1h6.5v-11.7h-6.5v-10.9h5.3v-3.1h.6v-22.8h-.7v-3.2h-5.3v-10.8h6.7V95.53h-10.3V82.93h6.8v-1.3h.9l.1-50h-5.9l.1-2.2h-7.3v2.4h-6v1.6h-6.5V23.13h-11.6v6.4h-41v-8.9h-17.7v8.8h-8.5V18.13H251v11.7h-6.4v3.5h-5.5V32h-16.9v3.6h-37.8v-3.8L149,26.92m-.1.1v-2.6h-5.6m0,0v-2.9h-5.6l.1-3-16-.2v2.8l-9-.1v7.3H69.63"></path><polygon class="cls-5" points="357.02 242.93 357.13 242.93 357.13 242.93 357.02 242.93"></polygon><polygon id="clickable-Meeting_Room_2" data-name="clickable-Meeting Room 2" class="cls-7" points="49.23 19.43 65.92 19.43 65.92 31.93 62.42 31.93 62.42 33.02 53.02 33.02 53.02 31.93 49.23 31.93 49.23 19.43"></polygon><polygon id="clickable-Meeting_Room_1" data-name="clickable-Meeting Room 1" class="cls-7" points="41.42 47.83 44.83 47.83 44.73 46.63 57.52 46.63 58.42 46.63 58.42 47.92 58.42 59.83 58.33 60.73 57.52 60.83 45.13 60.83 45.02 57.02 41.42 57.02 41.42 47.83"></polygon><polygon id="clickable-Meeting_Room_3" data-name="clickable-Meeting Room 3" class="cls-7" points="121.53 18.23 138.03 18.23 138.13 30.82 133.93 30.82 133.93 31.82 125.03 31.82 125.03 30.82 121.63 30.82 121.53 18.23"></polygon><polygon id="clickable-Exhibit_Hall_1" data-name="clickable-Exhibit Hall 1" class="cls-8" points="134.72 38.33 58.42 38.33 58.42 115.22 134.63 115.33 134.72 38.33"></polygon><polygon id="clickable-Exhibit_Hall_2" data-name="clickable-Exhibit Hall 2" class="cls-8" points="134.72 60.33 134.63 125.53 134.63 125.53 134.63 158.82 178.53 158.82 178.53 60.33 178.53 60.33 134.72 60.33"></polygon><polygon id="clickable-Exhibit_Hall_3" data-name="clickable-Exhibit Hall 3" class="cls-8" points="178.53 60.33 178.53 125.53 178.43 125.53 178.53 158.82 244.53 158.82 244.53 60.33 178.53 60.33"></polygon><polygon id="clickable-Exhibit_Hall_4" data-name="clickable-Exhibit Hall 4" class="cls-8" points="287.52 158.93 244.53 158.82 244.53 60.33 265.73 60.33 265.73 50.02 287.82 50.02 287.82 46.52 319.73 46.52 319.73 49.92 342.43 49.92 342.52 104.42 346.43 104.42 346.43 125.42 341.43 125.42 341.43 160.03 287.52 158.93"></polygon><rect id="clickable-Exhibit_Hall_5" data-name="clickable-Exhibit Hall 5" class="cls-8" x="287.52" y="158.93" width="65.8" height="87.2"></rect><polygon id="clickable-Ballroom_B" data-name="clickable-Ballroom B" class="cls-9" points="84.53 180.03 69.13 180.03 59.52 170.93 59.52 158.32 84.53 158.32 84.53 180.03"></polygon><polygon id="clickable-Ballroom_A" data-name="clickable-Ballroom A" class="cls-9" points="113.03 158.32 59.52 158.32 59.52 120.92 112.92 120.83 113.03 158.32"></polygon><rect id="clickable-Ballroom_C" data-name="clickable-Ballroom C" class="cls-9" x="84.53" y="158.32" width="28.5" height="21.7"></rect><text class="cls-10" transform="translate(86.24 80.99)">EH1</text><text class="cls-10" transform="translate(47.79 57.89)">1</text><text class="cls-10" transform="translate(54.44 30.39)">2</text><text class="cls-10" transform="translate(126.69 29.19)">3</text><text class="cls-10" transform="translate(82.64 143.74)">A</text><text class="cls-10" transform="translate(68.39 173.34)">B</text><text class="cls-10" transform="translate(95.29 173.34)">C</text><text class="cls-10" transform="translate(146.24 113.74)">EH2</text><text class="cls-10" transform="translate(201.14 113.74)">EH3</text><text class="cls-10" transform="translate(285.14 107.44)">EH4</text><text class="cls-10" transform="translate(310.09 206.69)">EH5</text><text class="cls-11" transform="translate(151.85 205.82)">Service Areas/Loading Docks</text><text x="37.444275px" font-family="Sans Serif" y="4.349613px" text-anchor="middle" class="cls-12" font-size="5px" transform="translate(170.2 5.87)">TRINITY ST.</text><text class="cls-12" transform="translate(164.61 269.78)">RED RIVER ST.</text><text y="367.274597px" translate="translate" transform="rotate(270 17.117188 -2.539062)" class="cls-12" x="-143.80481px">4TH ST.</text><text y="0px" transform="translate(5.97 176.94) rotate(-90)" class="cls-12" x="0.056366px">CESAR CHAVEZ ST.</text><path class="cls-13" d="M36.36,220.21A14.66,14.66,0,0,0,26.51,224L28.63,225a12.54,12.54,0,0,1,19.31,5.19h2.33A14.72,14.72,0,0,0,36.36,220.21ZM23.91,236.65a12.68,12.68,0,0,1,0-3.51l-1.49-3.06a14.78,14.78,0,0,0,0,9.63Zm26.34,3H47.93a12.54,12.54,0,0,1-19.34,5.11l-2.13,1.06a14.72,14.72,0,0,0,23.79-6.16Zm-17,10.23a15.53,15.53,0,0,0,6,0l-3,3Zm3.07-30.27a15.42,15.42,0,0,0-3,.29l3-3,3,3A15.42,15.42,0,0,0,36.36,219.64Zm-15,18.26-3-3,3-3a15.53,15.53,0,0,0,0,6Z"></path><path class="cls-13" d="M44.72,234.94l-23.95-12,5.83,12-5.88,12Zm-16.64,0-4.39-9,18.05,9.08Z"></path><polygon class="cls-13" points="46.87 238.25 46.78 231.63 48.08 231.61 50.85 236 50.79 231.58 52.03 231.56 52.12 238.18 50.77 238.2 48.05 233.91 48.11 238.23 46.87 238.25"></polygon></svg>