<svg id="Level_1" data-name="Level 1" xmlns="http://www.w3.org/2000/svg" viewBox="0 0 357.6 237"><defs><style>.cls-1,.cls-3,.cls-6{fill:none;}.cls-1{stroke:#f5f4f8;stroke-linecap:square;}.cls-1,.cls-4,.cls-5{stroke-miterlimit:3.86;}.cls-1,.cls-6{stroke-width:0.88px;}.cls-2,.cls-4{fill:#f5f4f8;}.cls-3{stroke:#8d8032;stroke-linecap:round;stroke-linejoin:round;stroke-width:0.01px;}.cls-4,.cls-6{stroke:#b3adb8;}.cls-5{fill:#ffdd93;stroke:#ffb618;}.cls-6{stroke-miterlimit:10;}.cls-7,.cls-8,.cls-9{isolation:isolate;fill:#282629;font-family:OpenSans-Semibold, Open Sans;font-weight:700;}.cls-7{font-size:11px;}.cls-8,.cls-9{font-size:4.52px;}.cls-9{letter-spacing:-0.05em;}</style></defs><title>ACC_FloorPlans</title><path class="cls-1" d="M52,11.7V3.8H46.2v-1H31.7V1.6H1.9V22.1H3.1L3.2,37H13.5l.1,9.6,4.6.1-.1,38.2-5.3.1v23.8H9.4v9.5l-5.5,2.8L.6,126.4v5.7l3.4,5,4.8,2.7h5.7v14l12.9,12.6,19.1,4.9,5.4,5.2L63,175.1H74.5L85.2,183l10.2.9,5.7,6.6,5.3,3.4,5.7,8.2-1.6,6.8,1.3,9.7,3.1,5.7h2.2V231h37.1v-.3h29.6l.1-1.2h12.5l.1,1.1h62.2l-.1,5.7h13.6v-17l63.6-.3h10.9V197.6h3.2l.1-44.1h6.5V141.8H350V130.9h5.3v-3.1h.6V105h-.7v-3.2h-5.3V91h6.7V78.9H346.3V66.3h6.8V65h.9l.1-50h-5.9l.1-2.2H341v2.4h-6v1.6h-6.5V6.5H316.9v6.4h-41V4H258.2v8.8h-8.5V1.5H233.4V13.2H227v3.5h-5.5V15.4H204.6V19H166.8V15.2l-35.4-4.9m-.1.1V7.8h-5.6m0,0V4.9h-5.6l.1-3-16-.2V4.5l-9-.1v7.3H52"/><path class="cls-2" d="M236.2,35.5h11.1l-.1,32-.1,32,1.6.2.4,28.5,8.1.1v6.1l-.1,20.3h-4.7v11.4h-2.6v4.4h7.3l.3,55.9,85.8-.9v-5.1l.4-1.4h3.1V197.6h3.2l-.2-44.1h6.8V138.8h-4.3v-7.9h3.1v-3.1l.4-.13v-22.4l-1.2-2.17V99.9h-2.6V91H356V77.5H345.6V66.3h6.65l1.86-1.38V14.42l-6.5.38V12.7l-7.3.1v2.3h-5.9v1.4l-5.7-.1V6.6H316v5.8l-40.1-.6V3.6l-19,.4v8.3h-7.2V1.7H232l.3,10-6.6.1V24.1l9.7.1Z"/><line class="cls-3" x1="335.1" y1="131.8" x2="335.3" y2="131.8"/><rect class="cls-3" x="269.1" y="164.3" width="0.3" height="0.1"/><rect class="cls-3" x="269.4" y="149.1" width="0.4" height="0.2"/><polygon id="clickable-19B" class="cls-4" points="290.2 138.2 269.1 138.2 269.1 127.9 291.3 127.9 291.3 134 290.2 134 290.2 138.2"/><polygon id="clickable-19A" class="cls-4" points="290.2 149.7 269.1 149.7 269.1 138.4 290.2 138.4 290.2 140.2 291.3 140.2 291.4 145.9 290.2 145.9 290.2 149.7"/><polygon id="clickable-18D" class="cls-4" points="290.2 159.5 269.1 159.5 269.1 149.7 290.2 149.7 290.2 151.8 291.3 151.8 291.3 156.6 290.2 156.6 290.2 159.5"/><rect id="clickable-18C" class="cls-4" x="269.1" y="159.5" width="21" height="11.6"/><rect id="clickable-18B" class="cls-4" x="269.1" y="171.2" width="21" height="11.6"/><polygon id="clickable-18A" class="cls-4" points="290.3 192.7 269.1 192.7 269.1 182.7 290.2 182.7 290.2 185.7 291.3 185.7 291.3 191.2 290.3 191.2 290.3 192.7"/><polygon id="clickable-17B" class="cls-4" points="290.3 204.3 269.1 204.3 269.1 192.7 290.3 192.7 290.3 196.5 291.3 196.5 291.3 201.2 290.3 201.2 290.3 204.3"/><polygon id="clickable-17A" class="cls-4" points="291.2 217.4 269.1 217.4 269.1 204.4 290.3 204.4 290.3 207.3 291.2 207.3 291.2 217.4"/><polygon id="clickable-Ballroom_D" data-name="clickable-Ballroom D" class="cls-5" points="323.7 91 323.8 59.5 258.6 59.5 258.5 116.8 323.3 116.8 323.3 106.3 327.7 106.3 327.7 91 323.7 91"/><polygon id="clickable-Ballroom_F" data-name="clickable-Ballroom F" class="cls-5" points="301.9 32.2 300.3 32.2 300.3 27.9 292.8 27.9 292.8 32.4 279.9 32.4 279.9 59.5 301.9 59.4 301.9 32.2"/><polygon id="clickable-Ballroom_G" data-name="clickable-Ballroom G" class="cls-5" points="327.7 59.4 327.8 42.7 323.5 42.7 323.5 32.3 311.2 32.3 311.2 27.8 303.7 27.8 303.7 32.3 301.9 32.3 301.9 59.5 327.7 59.4"/><polygon id="clickable-Ballroom_E" data-name="clickable-Ballroom E" class="cls-5" points="279.9 32.4 278.2 32.4 278.2 28 270.8 28 270.8 32.3 258.7 32.3 258.6 59.5 279.9 59.5 279.9 32.4"/><polygon class="cls-6" points="257.4 226.4 257.4 170.1 250.1 170.1 250.1 165.7 252.7 165.7 252.7 154.3 257.4 154.3 257.5 127.9 249.1 127.8 249.2 99.2 247.4 99.2 247.4 35.9 235.6 35.9 235.5 24 225.8 24 225.7 11.8 232.3 11.7 232.1 1.2 249.7 1.2 249.7 11.8 257.3 11.8 257.3 3.6 275.9 3.6 275.9 11.8 316.4 11.9 316.4 6 328.5 6 328.5 15.8 334.7 15.8 334.7 14.5 340.7 14.5 340.7 12.2 348.3 12.2 348.3 14.3 354.1 14.3 354.1 65 352.9 65 352.9 66.3 346.1 66.3 346.1 77 356.4 77 356.4 91 352.4 91 352.4 99.5 355 99.5 355 102.7 355.7 102.7 355.7 127.8 355.1 127.8 355.1 130.9 352.2 130.9 352.2 138.8 356.5 138.8 356.5 153.5 349.9 153.5 349.9 197.6 346.5 197.6 346.7 219 343.6 219 343.6 225.6 257.4 226.4"/><polygon id="clickable-12B" class="cls-4" points="303.4 138.8 324 138.8 324.1 148.9 320.5 148.9 320.5 150 303.4 150 303.4 148.8 299.7 148.8 299.7 145.1 303.4 145.1 303.4 138.8"/><polygon id="clickable-12A" class="cls-4" points="303.4 127.8 324 127.8 324 138.8 303.4 138.8 303.4 137.1 301.1 137.1 301.1 134 303.4 134 303.4 127.8"/><polygon id="clickable-11A" class="cls-4" points="335.3 127.8 324 127.8 324 138.8 333.6 138.8 333.6 135 335.3 135 335.3 127.8"/><polygon id="clickable-11B" class="cls-4" points="333.6 142.6 333.6 138.8 324 138.8 324 148.9 327.4 148.9 327.4 149.9 335.4 149.9 335.4 142.6 333.6 142.6"/><polygon id="clickable-14" class="cls-4" points="324 161.1 320.5 161.1 320.5 160 313.3 160 313.3 182.3 320.5 182.3 320.5 181.1 324 181.1 324 161.1"/><polygon id="clickable-13B" class="cls-4" points="324 171.2 324 181.1 327.2 181.1 327.2 182.4 335.5 182.4 335.5 171.2 324 171.2"/><polygon id="clickable-13A" class="cls-4" points="327.2 160 327.2 161.1 324 161.1 324 171.3 335.5 171.3 335.5 160 327.2 160"/><polygon id="clickable-16B" class="cls-4" points="303.5 192.3 303.5 193.5 299.7 193.5 299.7 213.3 303.5 213.3 303.5 214.5 312.1 214.5 312.1 192.3 303.5 192.3"/><polygon id="clickable-15" class="cls-4" points="327.5 192.3 327.5 193.5 324 193.5 324 214.6 335.3 214.6 335.3 192.3 327.5 192.3"/><polygon id="clickable-16A" class="cls-4" points="312.1 214.5 324 214.6 324 193.5 320.7 193.5 320.7 192.3 312.1 192.3 312.1 214.5"/><text class="cls-7" transform="translate(289.06 93.21)">D</text><text class="cls-7" transform="translate(266.18 49.91)">E</text><text class="cls-7" transform="translate(287.97 49.91)">F</text><text class="cls-7" transform="translate(310.86 49.91)">G</text><text class="cls-8" transform="translate(275.13 134.35)">19B</text><text class="cls-8" transform="translate(275.13 145.5)">19A</text><text class="cls-8" transform="translate(274.96 155.9)">18D</text><text class="cls-8" transform="translate(275.19 166.6)">18C</text><text class="cls-8" transform="translate(275.13 178.3)">18B</text><text class="cls-8" transform="translate(275.13 189)">18A</text><text class="cls-8" transform="translate(275.13 199.8)">17B</text><text class="cls-8" transform="translate(301.83 204.7)">16B</text><text class="cls-8" transform="translate(313.98 204.75)">16A</text><text class="cls-8" transform="translate(327.07 204.75)">15</text><text class="cls-8" transform="translate(316.07 172.45)">14</text><text class="cls-8" transform="translate(308.48 134.6)">12A</text><text class="cls-9" transform="translate(324.8 134.6)">11A</text><text class="cls-9" transform="translate(324.81 145.5)">11B</text><text class="cls-8" transform="translate(308.48 145.7)">12B</text><text class="cls-8" transform="translate(325.68 166.95)">13A</text><text class="cls-8" transform="translate(325.68 178.1)">13B</text><text class="cls-8" transform="translate(275.13 212.2)">17A</text></svg>