<svg id="map" xmlns="http://www.w3.org/2000/svg" viewBox="0 0 154.94 372.53"><defs><style>.cls-1{fill:#f5f4f8;}.cls-2{fill:#b3adb8;}.cls-3{font-size:11px;fill:#282629;font-family:OpenSans-Semibold, Open Sans;font-weight:700;}</style></defs><title>PEC_FloorPlans</title><path class="cls-1" d="M119,218.4V57h35.38c-3.72,42.08-5.3,123.38-4,161.35Z"/><path class="cls-2" d="M153.84,57.54c-3.67,42.06-5.23,122.31-4,160.35H119.51V57.54h34.33m1.09-1H118.51V218.9h32.4c-1.36-38.45.26-120.28,4-162.35Z"/><path class="cls-1" d="M133.5,295.15a1.46,1.46,0,0,1-1.45-1.36l-1.51-22.26a1.48,1.48,0,0,1,1.39-1.58l5.09-.29a1.58,1.58,0,0,1,1.63,1.42l1.81,22a1.52,1.52,0,0,1-1.37,1.63l-5.45.48Z"/><path class="cls-2" d="M137.1,270.16a1.07,1.07,0,0,1,1,1l1.81,22a1,1,0,0,1-.92,1.09l-5.45.48h-.09a1,1,0,0,1-1-.89L131,271.49a1,1,0,0,1,.92-1l5.09-.29h.06m0-1H137l-5.09.29a2,2,0,0,0-1.86,2.11l1.51,22.26a2,2,0,0,0,2,1.83h.18l5.45-.48A2,2,0,0,0,141,293l-1.81-22a2.07,2.07,0,0,0-2-1.88Z"/><path class="cls-1" d="M.5,372V307.89H21.42a3.29,3.29,0,0,0,3.28-3.28V.5h69V35.72h40.27c-12.92,89.33-6.4,231.42,3.32,300.34H105.08v36Z"/><path class="cls-2" d="M93.17,1V36.22h40.2c-4.06,28.35-8.44,78.39-6.7,157.25,1.16,52.53,4.9,105.52,10,142.1H104.58v36H1V308.39H21.42a3.79,3.79,0,0,0,3.78-3.78V1h68m1-1h-70V304.61a2.79,2.79,0,0,1-2.78,2.78H0v65.14H105.58v-36h32.26c-9.75-68.62-16.27-212.58-3.32-301.34H94.17V0Zm40.35,35.22h0Z"/><g id="clickable-Meeting_Room_5" data-name="clickable-Meeting Room 5"><rect class="cls-1" x="39.05" y="210" width="63.58" height="48.96"/><path class="cls-2" d="M102.13,210.5v48H39.55v-48h62.58m1-1H38.55v50h64.58v-50Z"/></g><g id="clickable-Meeting_Room_4" data-name="clickable-Meeting Room 4"><rect class="cls-1" x="39.05" y="258.64" width="63.58" height="49.18"/><path class="cls-2" d="M102.13,259.14v48.18H39.55V259.14h62.58m1-1H38.55v50.18h64.58V258.14Z"/></g><g id="clickable-Meeting_Room_3" data-name="clickable-Meeting Room 3"><rect class="cls-1" x="39.05" y="160.74" width="63.58" height="49.35"/><path class="cls-2" d="M102.13,161.24V209.6H39.55V161.24h62.58m1-1H38.55V210.6h64.58V160.24Z"/></g><g id="clickable-Meeting_Room_2" data-name="clickable-Meeting Room 2"><rect class="cls-1" x="39.05" y="111.82" width="63.58" height="49.42"/><path class="cls-2" d="M102.13,112.32v48.42H39.55V112.32h62.58m1-1H38.55v50.42h64.58V111.32Z"/></g><g id="clickable-Meeting_Room_1" data-name="clickable-Meeting Room 1"><rect class="cls-1" x="39.05" y="64.5" width="63.58" height="47.86"/><path class="cls-2" d="M102.13,65v46.86H39.55V65h62.58m1-1H38.55v48.86h64.58V64Z"/></g><text class="cls-3" transform="translate(67.71 97.09)">1</text><text class="cls-3" transform="translate(67.71 145.22)">2</text><text class="cls-3" transform="translate(67.71 193.35)">3</text><text class="cls-3" transform="translate(67.71 241.48)">4</text><text class="cls-3" transform="translate(67.71 289.6)">5</text></svg>