<svg id="map" xmlns="http://www.w3.org/2000/svg" viewBox="0 0 402.39 272.55"><defs><style>.cls-1{fill:#f5f4f8;}.cls-2{fill:#b3adb8;}.cls-3{fill:#ffdd93;}.cls-4{fill:#ffb618;}.cls-5{fill:#c4d792;stroke:#91b041;stroke-miterlimit:3.86;}.cls-6{isolation:isolate;font-size:11px;fill:#282629;font-family:OpenSans-Semibold, Open Sans;font-weight:700;}.cls-7{fill:#fff1d2;stroke:#ffb618;stroke-miterlimit:10;}</style></defs><title>PEC_FloorPlans</title><polygon class="cls-1" points="296.58 257.29 296.58 246.46 253.9 246.46 253.9 225.69 212.29 225.69 212.29 246.46 184.89 246.46 184.89 225.69 170.43 225.69 170.43 246.46 106.84 246.46 106.84 257.29 58.86 257.29 58.86 207.67 53.45 207.67 53.45 139.28 58.86 139.28 58.86 116.87 72.69 116.87 71.66 79.8 69.41 79.8 69.41 62.94 89.28 62.94 89.28 65.44 146.21 65.44 146.21 57.45 172.25 57.45 172.25 65.44 188.49 65.44 188.49 49.89 214.61 49.89 214.61 59.57 252.15 59.57 252.15 50.2 278.18 50.2 278.18 65.44 314.92 65.44 314.92 59.53 336.31 59.53 336.31 85.42 349.98 85.42 349.98 122.74 340.8 122.74 340.8 181.28 350.36 181.28 350.36 202.36 355.24 202.36 355.24 257.29 296.58 257.29"/><path class="cls-2" d="M214.17,50.33V60h38.41V50.64h25.15V65.88h37.62V60h20.51V85.85h13.67V122.3h-9.18v59.41h9.56V202.8h4.88v54.05H297V246H254.33V225.26H211.85V246H185.33V225.26H170V246H106.4v10.83H59.3V207.24H53.89V139.72H59.3V117.31H73.14l0-.9-1-36.19,0-.85H69.85v-16h19v2.51h57.81v-8h25.15v8h17.12V50.33h25.25m.88-.88H188V65H172.68V57H145.78v8H89.72V62.5H69V80.24h2.26l1,36.19H58.42v22.41H53v69.27h5.41v49.62h48.85V246.9h63.59V226.13h13.59V246.9h28.27V226.13h40.73V246.9h42.69v10.83h59.54V201.93H350.8V180.84h-9.56V123.18h9.18V85H336.75V59.09H314.48V65H278.62V49.76H251.71v9.37H215V49.45Z"/><g id="clickable-Outdoor_Canopies" data-name="clickable-Outdoor Canopies"><path class="cls-3" d="M388.13,271.35c-8.86-2-18.46-3.88-29.35-5.86-.22-.05-22-5.26-40-8.16l35.42-.09V203.43H349.3V182.34h-9.56V121.68h9.18V86.48H335.25V60.59H316V66.5H277.12V51.26H253.21v9.37H213.55V51h-24V66.5H171.18v-8H147.28v8H88.22V64H71.47V80.74h2.27v38.19H59.92v21.41H54.51v66.27h5.41v50.73H86.19c-18.77,2.65-42.91,7.35-71.94,14l-2.47.53C40.73,180.84,37.16,92.15.86.8A662.93,662.93,0,0,0,188.93,31.59h.5l.39-20.34-2.2,0,0-1.74c4.49.09,9,.14,13.5.14a646,646,0,0,0,79.25-4.9l.24,1.75-2.15.25.39,20.46.55-.06A661.44,661.44,0,0,0,401.62.77c-31.79,100.31-25.82,208.46-10.94,271.12Z"/><path class="cls-4" d="M400.85,1.54c-14.73,46.82-22.35,98.23-22.66,152.84-.23,41.36,4.07,83.83,11.82,116.86l-1.76-.38c-8.85-2-18.45-3.88-29.35-5.86-.82-.2-18-4.28-34.3-7.19l29.08-.08h1v-54.8H349.8V181.84h-9.56V122.18h9.18V86H335.75V60.09H315.48V66H277.62V50.76H252.71v9.37H214V50.45H189V66H171.68V58H146.78v8H88.72V63.5H71V81.24h2.26v37.19H59.42v21.41H54v67.27h5.41v50.73h20c-17.71,2.76-39.59,7.12-65.28,13l-1.63.35c12.76-40.37,19-79.13,19.12-118.45C31.77,103.08,21.7,52.23,1.71,1.59a663.49,663.49,0,0,0,187.21,30.5l1,0,0-1,.37-19.34,0-1-1,0h-1.19l0-.74c4.33.09,8.7.13,13,.13A646.35,646.35,0,0,0,280,5.28l.1.75-.17,0-1,.12-.9.11,0,.9.37,19.46,0,1.1,1.1-.13A662,662,0,0,0,400.85,1.54M402.39,0a658,658,0,0,1-123,26.62L279,7.16l2.2-.25-.37-2.74a642.34,642.34,0,0,1-79.68,5q-7,0-14-.15l-.07,2.74,2.2,0-.37,19.34A659.36,659.36,0,0,1,0,0C45,112.55,33,203.94,11,272.55l3.32-.71c31.69-7.27,59.13-12.56,79.51-15H60.42V206.11H55V140.84h5.41V119.43H74.24V80.24H72V64.5H87.72V67h60.06V59h22.91v8H190V51.45h23v9.68h40.66V51.76h22.91V67h39.87V61.09h18.27V87h13.67v34.2h-9.18v61.66h9.56v21.09h4.88v52.81l-41.61.11c19,2.51,46.63,9.14,46.63,9.14,9.81,1.78,19.6,3.7,29.34,5.86l3.32.71C377.74,215.86,368.86,105,402.39,0Z"/></g><rect id="clickable-Exhibit_Hall_2" data-name="clickable-Exhibit Hall 2" class="cls-5" x="232.3" y="77.18" width="86.29" height="149.69"/><rect id="clickable-Exhibit_Hall_1" data-name="clickable-Exhibit Hall 1" class="cls-5" x="84.49" y="77.18" width="148.82" height="149.69"/><text class="cls-6" transform="translate(146.79 155.19)">EH-1</text><text class="cls-6" transform="translate(36.12 45.45)">SC</text><text class="cls-6" transform="translate(224.79 45.45)">WC</text><text class="cls-6" transform="translate(355.68 45.45)">NC</text><text class="cls-6" transform="translate(263.34 155.19)">EH-2</text><line class="cls-7" x1="71.49" y1="63.7" x2="71.49" y2="18.7"/><line class="cls-7" x1="335.25" y1="63.49" x2="335.25" y2="18.49"/></svg>