<?xml version="1.0" standalone="yes"?><svg xmlns="http://www.w3.org/2000/svg" cursor="default" id="map" style="zoom: 1;" viewBox="0 0 357.6 280"><defs><style>.cls-1{fill:#f5f4f8;}.cls-2{fill:#b3adb8;}.cls-3{fill:#ffdd93;}.cls-4{fill:#ffb618;}.cls-5{fill:#c4d792;stroke:#91b041;stroke-miterlimit:3.86;}.cls-6{isolation:isolate;font-size:9.78px;fill:#282629;font-family:OpenSans-Semibold, Open Sans;font-weight:700;}.cls-7{fill:#fff1d2;stroke:#ffb618;stroke-miterlimit:10;}</style></defs><title>PEC_FloorPlans</title><polygon class="cls-1" points="265.568787,246.148972 265.568787,236.518967 227.628769,236.518967 227.628769,218.068985 190.558762,218.068985 190.558762,236.518967 166.308762,236.518967 166.308762,218.068985 153.35878,218.068985 153.35878,236.518967 96.848778,236.518967 96.848778,246.148972 54.308777,246.148972 54.308777,202.048965 49.498775,202.048965 49.498775,141.368973 54.308777,141.368973 54.308777,121.448975 66.598778,121.448975 65.67878,88.408974 63.678776,88.408974 63.678776,73.518974 81.238777,73.518974 81.238777,75.74897 131.938766,75.74897 131.938766,68.648972 154.968765,68.648972 154.968765,75.74897 169.508774,75.74897 169.508774,61.92897 192.618759,61.92897 192.618759,70.528976 226.078781,70.528976 226.078781,62.198971 249.10878,62.198971 249.10878,75.74897 281.868774,75.74897 281.868774,70.488968 300.778748,70.488968 300.778748,93.49897 312.928772,93.49897 312.928772,126.56897 304.768799,126.56897 304.768799,178.68898 313.258789,178.68898 313.258789,197.42897 317.598755,197.42897 317.598755,246.148972 265.568787,246.148972"></polygon><path class="cls-2" d="M192.178757,62.368973 v8.6 h34.33 V62.638969 h22.16 V76.17897 h33.63 V70.92897 h18 v23 h12.15 v32.2 h-8.16 v53 h8.49 v18.74 h4.34 v47.84 H266.008789 v-9.63 H228.068771 V217.628983 h-38 v18.46 H166.748764 V217.628983 H152.948776 v18.46 H96.408775 v9.63 H54.748775 v-44.1 H49.948776 V141.798996 H54.748775 V121.888969 H67.048775 l0,-.9 l-.89,-32.16 l0,-.85 h-2 v-14 H80.798775 v2.23 h51.57 v-7.1 h22.16 v7.1 H169.948776 V62.368973 h22.24 m.88,-.88 h-24 V75.308975 H155.408768 v-7.1 H131.498764 v7.1 H81.67878 V73.078972 H63.238777 V88.848969 h2 l.89,32.16 H53.868774 v19.92 H49.058777 v61.56 h4.81 V246.538986 H97.288773 v-9.63 h56.51 V218.538986 h12.08 v18.46 H190.948776 V218.538986 h36.2 v18.46 h37.94 V246.538986 h52.91 V196.988968 h-4.34 V178.248978 h-8.49 V127.008972 h8.16 v-34 H301.21875 v-23 H281.428772 v5.26 H249.548782 V61.758972 H225.638779 v8.33 H193.058762 v-8.6 Z"></path><g id="clickable-Outdoor_Canopies" data-name="clickable-Outdoor Canopies"><path d="M346.888794,259.11615 c-7.89,-1.75 -16.42,-3.45 -26.09,-5.21 c-.19,0 -19,-4.54 -34.9,-7.15 l30.85,-.08 V198.75618 h-4.34 V180.026169 H303.948792 V126.216171 h8.16 V94.826172 H299.948792 v-23 H282.708801 V77.026169 H248.278763 V63.526165 H226.948776 v8.33 H191.778763 v-8.6 H170.33876 V77.026169 H154.138779 v-7.1 H132.778763 V77.026169 H80.398773 V74.846161 h-15 v15 h2 v33.83 H55.148777 v19 H50.338776 v59 H55.148777 v45.08 H77.758774 c-16.57,2.37 -37.77,6.51 -63.16,12.34 l-2.1,.45 C38.188778,178.716171 35.018776,99.946167 2.808776,18.826164 a589.21,589.21 0 0 0 167,27.33 h.5 l.35,-18.19 l-2,0 l0,-1.44 c4,.08 8,.12 11.95,.12 a573.92,573.92 0 0 0 70.38,-4.35 l.2,1.44 l-1.9,.22 l.35,18.3 l.55,-.06 A588,588 0 0 0 358.778748,18.796164 c-28.2,89.08 -22.92,185.1 -9.71,240.79 Z" visibility="visible" class="cls-3"></path><path class="cls-4" d="M358.008789,19.07897 C344.948792,60.638969 338.208801,106.268974 337.948792,154.728989 c-.21,36.69 3.6,74.37 10.46,103.71 l-1.39,-.3 c-7.87,-1.74 -16.4,-3.45 -26.08,-5.21 c-.74,-.18 -15.15,-3.61 -29.28,-6.18 l24.62,-.06 h1 V197.768967 H312.948792 V179.028976 h-8.49 V126.228973 h8.16 V93.838974 H300.438782 v-23 H282.208801 v5.26 H248.778763 V62.538971 H226.418777 v8.33 H192.278763 v-8.6 H169.83876 V76.078972 H154.638779 v-7.1 H132.278763 v7.1 H80.948776 V73.858971 H64.948776 v16 h2 v32.83 H54.648777 v19 H49.838776 v60 H54.648777 v45.08 H71.10878 c-15.49,2.46 -34.46,6.26 -56.61,11.35 l-1.26,.27 c11.3,-35.82 16.85,-70.22 16.94,-105.12 c.12,-44.09 -8.8,-89.22 -26.52,-134.16 a589.73,589.73 0 0 0 166.18,27 l1,0 l0,-1 l.33,-17.19 l0,-1 l-1,0 h-.95 V26.538971 c3.81,.08 7.66,.11 11.46,.11 a574.48,574.48 0 0 0 70,-4.29 l.06,.45 h0 l-.91,.1 l-.9,.11 l0,.9 l.33,17.29 l0,1.1 l1.1,-.13 A588.41,588.41 0 0 0 358.008789,19.07897 M359.548767,17.538969 A584.74,584.74 0 0 1 250.238754,41.198971 L249.948776,23.90897 l2,-.23 l-.33,-2.44 a570.84,570.84 0 0 1 -70.81,4.41 q-6.22,0 -12.43,-.13 l-.06,2.44 l2,0 l-.33,17.19 A586,586 0 0 1 1.948776,17.538969 C41.948776,117.538971 31.278776,198.778976 11.758777,259.748962 l2.95,-.63 c28.16,-6.46 52.55,-11.16 70.66,-13.33 H55.648777 V200.708969 H50.838776 v-58 H55.648777 v-19 H67.948776 V88.848969 H65.948776 v-14 H79.948776 v2.23 h53.37 v-7.1 h20.36 v7.1 h17.21 V63.26897 h20.44 v8.6 h36.13 V63.538971 h20.36 V77.078972 h35.43 V71.828972 h16.24 v23 h12.15 v30.4 h-8.16 v54.79 H311.948792 v18.74 h4.34 v46.93 l-37,.1 c16.92,2.23 41.44,8.12 41.44,8.12 c8.72,1.58 17.42,3.29 26.07,5.21 l2.95,.63 C337.648804,209.368973 329.748779,110.838974 359.548767,17.538969 Z"></path></g><rect height="133.03" x="208.398758px" y="86.128967px" id="clickable-Exhibit_Hall_2" width="76.68" class="cls-5" data-name="clickable-Exhibit Hall 2"></rect><rect height="133.03" x="77.028778px" y="86.128967px" id="clickable-Exhibit_Hall_1" width="132.25" class="cls-5" data-name="clickable-Exhibit Hall 1"></rect><text y="17.538969px" transform="translate(132.02 137.91)" class="cls-6" x="1.948776px">EH1</text><text y="17.538969px" transform="translate(32.1 40.39)" class="cls-6" x="1.948776px">SC</text><text y="17.538969px" transform="translate(199.76 40.39)" class="cls-6" x="1.948776px">WC</text><text y="17.538969px" transform="translate(316.09 40.39)" class="cls-6" x="1.948776px">NC</text><text y="17.538969px" transform="translate(235.6 137.91)" class="cls-6" x="1.948776px">EH2</text><line x2="65.488777px" x1="65.488777px" class="cls-7" y2="34.158974px" y1="74.148972px"></line><line x2="299.878784px" x1="299.878784px" class="cls-7" y2="33.968971px" y1="73.958969px"></line><text stroke="none" style="outline-style:none;" id="text1" stroke-width="1px" x="181.800461px" text-rendering="geometricPrecision" font-family="Sans Serif" fill="grey" font-size="7px" y="10.576255px" transform="" text-anchor="middle">W RIVERSIDE DR.</text><text stroke="none" style="outline-style:none;" id="text2" stroke-width="1px" x="-4.190763px" text-rendering="geometricPrecision" font-family="Sans Serif" fill="grey" font-size="7px" y="122.433868px" transform="rotate(0 17.046875 122.039062) scale(1 1) rotate(270 17.046875 122.039062)" text-anchor="middle">BUTLER PARK</text><text stroke="none" style="outline-style:none;" id="text3" stroke-width="1px" x="260.622681px" text-rendering="geometricPrecision" font-family="Sans Serif" fill="grey" font-size="7px" y="401.736176px" transform="rotate(270 178.3125 225.804688)" text-anchor="middle">S 1ST ST.</text><text stroke="none" style="outline-style:none;" id="text4" stroke-width="1px" x="189.068207px" text-rendering="geometricPrecision" font-family="Sans Serif" fill="grey" font-size="7px" y="274.545837px" transform="" text-anchor="middle">BARTON SPRINGS RD.</text></svg>