<?xml version="1.0" standalone="yes"?><svg xmlns="http://www.w3.org/2000/svg" id="map" viewBox="0 0 357.6 252" style="zoom: 1;"><defs><style>.cls-1{fill:#f5f4f8;}.cls-2{fill:#b3adb8;}.cls-3{fill:#ffdd93;}.cls-4{fill:#ffb618;}.cls-5{fill:#c4d792;stroke:#91b041;stroke-miterlimit:3.86;}.cls-6{isolation:isolate;font-size:9.78px;fill:#282629;font-family:OpenSans-Semibold, Open Sans;font-weight:700;}.cls-7{fill:#fff1d2;stroke:#ffb618;stroke-miterlimit:10;}</style></defs><title>PEC_FloorPlans</title><polygon class="cls-1" points="263.62 228.61 263.62 218.98 225.68 218.98 225.68 200.53 188.61 200.53 188.61 218.98 164.36 218.98 164.36 200.53 151.41 200.53 151.41 218.98 94.9 218.98 94.9 228.61 52.36 228.61 52.36 184.51 47.55 184.51 47.55 123.83 52.36 123.83 52.36 103.91 64.65 103.91 63.73 70.87 61.73 70.87 61.73 55.98 79.29 55.98 79.29 58.21 129.99 58.21 129.99 51.11 153.02 51.11 153.02 58.21 167.56 58.21 167.56 44.39 190.67 44.39 190.67 52.99 224.13 52.99 224.13 44.66 247.16 44.66 247.16 58.21 279.92 58.21 279.92 52.95 298.83 52.95 298.83 75.96 310.98 75.96 310.98 109.03 302.82 109.03 302.82 161.15 311.31 161.15 311.31 179.89 315.65 179.89 315.65 228.61 263.62 228.61"></polygon><path class="cls-2" d="M190.23,44.83v8.6h34.33V45.1h22.16V58.64h33.63V53.39h18v23h12.15v32.2h-8.16v53h8.49v18.74h4.34v47.84H264.06v-9.63H226.12V200.09h-38v18.46H164.8V200.09H151v18.46H94.46v9.63H52.8v-44.1H48V124.26H52.8V104.35H65.1l0-.9-.89-32.16,0-.85h-2v-14H78.85v2.23h51.57v-7.1h22.16v7.1H168V44.83h22.24m.88-.88h-24V57.77H153.46v-7.1H129.55v7.1H79.73V55.54H61.29V71.31h2l.89,32.16H51.92v19.92H47.11v61.56h4.81V229H95.34v-9.63h56.51V201h12.08v18.46H189V201h36.2v18.46h37.94V229h52.91V179.45h-4.34V160.71h-8.49V109.47h8.16v-34H299.27v-23H279.48v5.26H247.6V44.22H223.69v8.33H191.11v-8.6Z"></path><g id="clickable-Outdoor_Canopies" data-name="clickable-Outdoor Canopies"><path class="cls-3" d="M344.940002,241.577194 c-7.89,-1.75 -16.42,-3.45 -26.09,-5.21 c-.19,0 -19,-4.54 -34.9,-7.15 l30.85,-.08 V181.217194 h-4.34 V162.487198 H302 V108.6772 h8.16 V77.287201 H298 v-23 H280.76001 V59.487194 H246.330002 V45.987194 H225 v8.33 H189.830002 v-8.6 H168.389999 V59.487194 H152.190002 v-7.1 H130.830002 V59.487194 H78.449997 V57.307194 h-15 v15 h2 v33.83 H53.200001 v19 H48.389999 v59 H53.200001 v45.08 H75.809998 c-16.57,2.37 -37.77,6.51 -63.16,12.34 l-2.1,.45 C36.240002,161.1772 33.07,82.407196 0.86,1.287194 a589.21,589.21 0 0 0 167,27.33 h.5 l.35,-18.19 l-2,0 l0,-1.44 c4,.08 8,.12 11.95,.12 a573.92,573.92 0 0 0 70.38,-4.35 l.2,1.44 l-1.9,.22 l.35,18.3 l.55,-.06 A588,588 0 0 0 356.829987,1.257194 c-28.2,89.08 -22.92,185.1 -9.71,240.79 Z" visibility="visible"></path><path class="cls-4" d="M356.06,1.54C343,43.1,336.26,88.73,336,137.19c-.21,36.69,3.6,74.37,10.46,103.71l-1.39-.3c-7.87-1.74-16.4-3.45-26.08-5.21-.74-.18-15.15-3.61-29.28-6.18l24.62-.06h1V180.23H311V161.49h-8.49V108.69h8.16V76.3H298.49v-23H280.26v5.26H246.83V45H224.47v8.33H190.33v-8.6H167.89V58.54H152.69v-7.1H130.33v7.1H79V56.32H63v16h2v32.83H52.7v19H47.89v60H52.7v45.08H69.16c-15.49,2.46-34.46,6.26-56.61,11.35l-1.26.27c11.3-35.82,16.85-70.22,16.94-105.12.12-44.09-8.8-89.22-26.52-134.16a589.73,589.73,0,0,0,166.18,27l1,0,0-1,.33-17.19,0-1-1,0h-.95V9c3.81.08,7.66.11,11.46.11a574.48,574.48,0,0,0,70-4.29l.06.45h0l-.91.1-.9.11,0,.9.33,17.29,0,1.1,1.1-.13A588.41,588.41,0,0,0,356.06,1.54M357.6,0A584.74,584.74,0,0,1,248.29,23.66L248,6.37l2-.23-.33-2.44a570.84,570.84,0,0,1-70.81,4.41q-6.22,0-12.43-.13l-.06,2.44,2,0-.33,17.19A586,586,0,0,1,0,0C40,100,29.33,181.24,9.81,242.21l2.95-.63c28.16-6.46,52.55-11.16,70.66-13.33H53.7V183.17H48.89v-58H53.7v-19H66V71.31H64v-14H78v2.23h53.37v-7.1h20.36v7.1h17.21V45.73h20.44v8.6h36.13V46h20.36V59.54h35.43V54.29h16.24v23h12.15v30.4h-8.16v54.79H310v18.74h4.34v46.93l-37,.1c16.92,2.23,41.44,8.12,41.44,8.12,8.72,1.58,17.42,3.29,26.07,5.21l2.95.63C335.7,191.83,327.8,93.3,357.6,0Z"></path></g><rect id="clickable-Exhibit_Hall_2" data-name="clickable-Exhibit Hall 2" class="cls-5" x="206.45" y="68.59" width="76.68" height="133.03"></rect><rect id="clickable-Exhibit_Hall_1" data-name="clickable-Exhibit Hall 1" class="cls-5" x="75.08" y="68.59" width="132.25" height="133.03"></rect><text class="cls-6" transform="translate(132.02 137.91)">EH1</text><text class="cls-6" transform="translate(32.1 40.39)">SC</text><text class="cls-6" transform="translate(199.76 40.39)">WC</text><text class="cls-6" transform="translate(316.09 40.39)">NC</text><text class="cls-6" transform="translate(235.6 137.91)">EH2</text><line class="cls-7" x1="63.54" y1="56.61" x2="63.54" y2="16.62"></line><line class="cls-7" x1="297.93" y1="56.42" x2="297.93" y2="16.43"></line><text stroke="none" style="outline-style:none;" id="text1" stroke-width="1px" x="86.20546px" text-rendering="geometricPrecision" font-family="Sans Serif" fill="grey" font-size="10px" y="9.26354px" transform="" text-anchor="middle">W RIVERSIDE DR.</text><text stroke="none" style="outline-style:none;" id="text2" stroke-width="1px" x="15.564807px" text-rendering="geometricPrecision" font-family="Sans Serif" fill="grey" font-size="10px" y="118.912292px" transform="rotate(0 17.046875 122.039062) scale(1 1) rotate(270 17.046875 122.039062)" text-anchor="middle">S LAMAR BLVD.</text><text stroke="none" style="outline-style:none;" id="text3" stroke-width="1px" x="277.213043px" text-rendering="geometricPrecision" font-family="Sans Serif" fill="grey" font-size="10px" y="400.023285px" transform="rotate(270 178.3125 225.804688)" text-anchor="middle">S 1ST. ST.</text><text stroke="none" style="outline-style:none;" id="text4" stroke-width="1px" x="191.954224px" text-rendering="geometricPrecision" font-family="Sans Serif" fill="grey" font-size="10px" y="241.198212px" transform="" text-anchor="middle">BARTON SPRINGS RD.</text></svg>