<?xml version="1.0" standalone="yes"?><svg xmlns="http://www.w3.org/2000/svg" id="map" viewBox="0 0 357.6 242.21" style="zoom: 1;"><defs><style>.cls-1{fill:#f5f4f8;}.cls-2{fill:#b3adb8;}.cls-3{fill:#9fd8f4;stroke:#52a5c6;stroke-miterlimit:10;}.cls-4{font-size:7.15px;fill:#282629;font-family:OpenSans-Semibold, Open Sans;font-weight:700;}</style></defs><title>level-2</title><g id="clickable-Outdoor_Canopies" data-name="clickable-Outdoor Canopies"><path class="cls-1" d="M356.06,1.54C343,43.1,336.26,88.73,336,137.19c-.21,36.69,3.6,74.37,10.46,103.71l-1.39-.3c-7.87-1.74-16.4-3.45-26.08-5.21-.74-.18-15.15-3.61-29.28-6.18l24.62-.06h1V180.23H311V161.49h-8.49V108.69h8.16V76.3H298.49v-23H280.26v5.26H246.83V45H224.47v8.33H190.33v-8.6H167.89V58.54H152.69v-7.1H130.33v7.1H79V56.32H63v16h2v32.83H52.7v19H47.89v60H52.7v45.08H69.16c-15.49,2.46-34.46,6.26-56.61,11.35l-1.26.27c11.3-35.82,16.85-70.22,16.94-105.12.12-44.09-8.8-89.22-26.52-134.16a589.73,589.73,0,0,0,166.18,27l1,0,0-1,.33-17.19,0-1-1,0h-.95V9c3.81.08,7.66.11,11.46.11a574.49,574.49,0,0,0,70-4.29l.06.45h0l-.91.1-.9.11,0,.9.33,17.29,0,1.1,1.1-.13A588.41,588.41,0,0,0,356.06,1.54M357.6,0A584.74,584.74,0,0,1,248.29,23.66L248,6.37l2-.23-.33-2.44a570.84,570.84,0,0,1-70.81,4.41q-6.22,0-12.43-.13l-.06,2.44,2,0-.33,17.19A586,586,0,0,1,0,0C40,100,29.33,181.24,9.81,242.21l2.95-.63c28.16-6.46,52.55-11.16,70.66-13.33H53.7V183.17H48.89v-58H53.7v-19H66V71.31H64v-14H78v2.23h53.37v-7.1h20.36v7.1h17.21V45.73h20.44v8.6h36.13V46h20.36V59.54h35.43V54.29h16.24v23h12.15v30.4h-8.16v54.79H310v18.74h4.34v46.93l-37,.1c16.92,2.23,41.44,8.12,41.44,8.12,8.72,1.58,17.42,3.29,26.07,5.21l2.95.63C335.7,191.83,327.8,93.3,357.6,0Z"></path></g><path class="cls-1" d="M334.42,141.82 V37.26 h22.63 c-2.4,27.36 -3.42,79.85 -2.59,104.56 Z" font-family="Helvetica" font-size="10px" text-anchor="middle"></path><path class="cls-2" d="M356.51,37.76c-2.35,27.32-3.36,78.79-2.56,103.56h-19V37.76h21.59m1.09-1H333.92V142.32H355c-.88-25,.17-78.2,2.62-105.56Z"></path><path class="cls-1" d="M344.3,191.67a1.46,1.46,0,0,1-1.45-1.36L342,177.23a1.48,1.48,0,0,1,1.39-1.58l1.92-.11a1.58,1.58,0,0,1,1.63,1.42L348,189.84a1.52,1.52,0,0,1-1.37,1.63l-2.15.19Z"></path><path class="cls-2" d="M345.35,176a1.07,1.07,0,0,1,1,1l1.06,12.88a1,1,0,0,1-.92,1.09l-2.15.19h-.09a1,1,0,0,1-1-.89l-.89-13.08a1,1,0,0,1,.92-1l1.91-.11h.06m0-1h-.12l-1.91.11a2,2,0,0,0-1.86,2.11l.89,13.08a2,2,0,0,0,2,1.83h.18l2.15-.19a2,2,0,0,0,1.83-2.17l-1.06-12.88a2.07,2.07,0,0,0-2-1.88Z"></path><path class="cls-1" d="M257.36,241.71V200.36h13.43a2.31,2.31,0,0,0,2.31-2.31V.5h44.49V23.4h26.16c-8.35,58-4.14,150.08,2.16,194.93H325v23.38Z"></path><path class="cls-2" d="M317.09,1V23.9h26.08c-8.21,57.86-4.08,149,2.16,193.93H324.51v23.38H257.86V200.86h12.93a2.81,2.81,0,0,0,2.81-2.81V1h43.49m1-1H272.6V198.05a1.81,1.81,0,0,1-1.81,1.81H256.86v42.35h68.65V218.83h21c-6.34-44.62-10.58-138.22-2.16-195.93H318.09V0Zm26.24,22.9h0Z"></path><rect id="clickable-Meeting_Room_5" data-name="clickable-Meeting Room 5" class="cls-3" x="281.93" y="167.84" width="41.99" height="32.63"></rect><rect id="clickable-Meeting_Room_4" data-name="clickable-Meeting Room 4" class="cls-3" x="281.93" y="136.22" width="41.99" height="32.48"></rect><rect id="clickable-Meeting_Room_3" data-name="clickable-Meeting Room 3" class="cls-3" x="281.93" y="104.48" width="41.99" height="32.74"></rect><rect id="clickable-Meeting_Room_2" data-name="clickable-Meeting Room 2" class="cls-3" x="281.93" y="72.69" width="41.99" height="32.78"></rect><rect id="clickable-Meeting_Room_1" data-name="clickable-Meeting Room 1" class="cls-3" x="281.93" y="41.91" width="41.99" height="31.77"></rect><text class="cls-4" transform="translate(300.88 63.42)">1</text><text class="cls-4" transform="translate(300.88 94.73)">2</text><text class="cls-4" transform="translate(300.88 126)">3</text><text class="cls-4" transform="translate(300.88 157)">4</text><text class="cls-4" transform="translate(300.88 188.3)">5</text><text stroke="none" style="outline-style: none;" id="text2" stroke-width="1px" x="86.720413px" text-rendering="geometricPrecision" font-family="Sans Serif" fill="grey" font-size="10px" y="9.781297px" transform="" text-anchor="middle">W RIVERSIDE DR.</text><text stroke="none" style="outline-style:none;" id="text1" stroke-width="1px" x="26.308447px" text-rendering="geometricPrecision" font-family="Sans Serif" fill="grey" font-size="10px" y="133.041229px" transform="rotate(270 15.101562 129.335938)" text-anchor="middle">Butler Park</text><text stroke="none" style="outline-style:none;" id="text3" stroke-width="1px" x="192.928619px" text-rendering="geometricPrecision" font-family="Sans Serif" fill="grey" font-size="10px" y="230.967133px" transform="" text-anchor="middle">BARTON SPRINGS RD.</text></svg>