<?xml version="1.0" encoding="utf-8"?>
<!-- Generator: Adobe Illustrator 20.0.0, SVG Export Plug-In . SVG Version: 6.00 Build 0)  -->
<svg version="1.1" id="Isolation_Mode" xmlns="http://www.w3.org/2000/svg" xmlns:xlink="http://www.w3.org/1999/xlink" x="0px"
	 y="0px" viewBox="0 0 21.1 34.2" enable-background="new 0 0 21.1 34.2" xml:space="preserve">
<path d="M19.5,14.9L6.1,1.5c0,0,0,0,0,0c-1.2-1.2-3.3-1.2-4.5,0C1,2.1,0.7,2.8,0.7,3.7c0,0.8,0.3,1.6,0.9,2.2l11.2,11.2L1.6,28.3
	c-0.6,0.6-0.9,1.4-0.9,2.2s0.3,1.6,0.9,2.2c0.6,0.6,1.4,0.9,2.2,0.9s1.6-0.3,2.2-0.9l13.4-13.4C20.7,18.1,20.7,16.1,19.5,14.9z"/>
</svg>
