<?xml version="1.0" encoding="utf-8"?>
<!-- Generator: Adobe Illustrator 20.0.0, SVG Export Plug-In . SVG Version: 6.00 Build 0)  -->
<svg version="1.1" id="Layer_1" xmlns="http://www.w3.org/2000/svg" xmlns:xlink="http://www.w3.org/1999/xlink" x="0px" y="0px"
	 viewBox="0 0 24 24" enable-background="new 0 0 24 24" xml:space="preserve" fill="#1DAEAC">
<path d="M20.3,8.2l-6.5-6c-0.3-0.3-0.7-0.4-1.1-0.4H5.9C4.4,1.7,3.1,3,3.1,4.5v15c0,1.5,1.2,2.8,2.8,2.8h12.2c1.5,0,2.8-1.2,2.8-2.8
	V9.4C20.9,9,20.7,8.5,20.3,8.2z M13.7,3.6l5.2,4.8h-3.6c-0.9,0-1.7-0.7-1.7-1.7V3.6z M19.8,19.5c0,0.9-0.7,1.7-1.7,1.7H5.9
	c-0.9,0-1.7-0.7-1.7-1.7v-15c0-0.9,0.7-1.7,1.7-1.7h6.7v3.9c0,1.5,1.2,2.8,2.8,2.8h4.4L19.8,19.5L19.8,19.5z"/>
</svg>
