<?xml version="1.0" encoding="utf-8"?>
<!-- Generator: Adobe Illustrator 20.0.0, SVG Export Plug-In . SVG Version: 6.00 Build 0)  -->
<svg version="1.1" id="Layer_1" xmlns="http://www.w3.org/2000/svg" xmlns:xlink="http://www.w3.org/1999/xlink" x="0px" y="0px"
	 viewBox="0 0 69.6 69.6" enable-background="new 0 0 69.6 69.6" xml:space="preserve">
<g>
	<path fill="#444046" d="M59.4,10.2v18.1H41.3V10.2H59.4 M28.3,10.2v18.1H10.2V10.2H28.3 M59.4,41.3v18.1H41.3V41.3H59.4 M28.3,41.3
		v18.1H10.2V41.3H28.3 M60.7,6.7H40l-1.5,0.6l-0.6,1.5v20.7l0.6,1.5l1.5,0.6h20.7l1.5-0.6l0.6-1.5V8.9l-0.6-1.5L60.7,6.7L60.7,6.7z
		 M29.6,6.7H8.9L7.4,7.4L6.7,8.9v20.7l0.6,1.5l1.5,0.6h20.7l1.5-0.6l0.6-1.5V8.9l-0.6-1.5L29.6,6.7L29.6,6.7z M60.7,37.8H40
		l-1.5,0.6L37.8,40v20.7l0.6,1.5l1.5,0.6h20.7l1.5-0.6l0.6-1.5V40l-0.6-1.5L60.7,37.8L60.7,37.8z M29.6,37.8H8.9l-1.5,0.6L6.7,40
		v20.7l0.6,1.5l1.5,0.6h20.7l1.5-0.6l0.6-1.5V40l-0.6-1.5L29.6,37.8L29.6,37.8z"/>
</g>
</svg>
