<?xml version="1.0" encoding="utf-8"?>
<!-- Generator: Adobe Illustrator 20.0.0, SVG Export Plug-In . SVG Version: 6.00 Build 0)  -->
<svg version="1.1" id="Layer_1" xmlns="http://www.w3.org/2000/svg" xmlns:xlink="http://www.w3.org/1999/xlink" x="0px" y="0px"
	 viewBox="0 0 100 100" enable-background="new 0 0 100 100" xml:space="preserve">
<path d="M100,50c0,27.6-22.4,50-50,50S0,77.6,0,50S22.4,0,50,0S100,22.4,100,50z M24,47.5c0.2-7,1.4-13.7,3.5-19.9l-16.7,0
	c-3.4,5.9-5.5,12.7-5.9,19.9H24z M47.6,27.6H32.7c-2.2,6.2-3.5,12.9-3.8,19.9h18.7L47.6,27.6L47.6,27.6z M47.6,4.9
	c-5.3,4.7-9.7,10.8-12.9,17.8h12.9V4.9z M14,22.7h15.3c2.6-6.2,6.1-11.9,10.2-16.6C29,8.5,20,14.8,14,22.7z M95.1,47.5
	c-0.4-7.2-2.5-14-5.9-19.9l-16.7,0c2,6.2,3.2,12.9,3.5,19.9H95.1z M52.4,47.5h18.7c-0.2-7-1.6-13.7-3.8-19.9H52.4V47.5z M52.4,22.7
	h12.9c-3.2-7-7.6-13.1-12.9-17.8V22.7z M60.4,6.1c4.1,4.7,7.6,10.4,10.2,16.6H86C80,14.8,71,8.5,60.4,6.1z M4.9,52.5
	c0.4,7.2,2.5,14,5.9,19.9l16.7,0c-2-6.2-3.2-12.9-3.5-19.9L4.9,52.5L4.9,52.5z M47.6,52.5H28.9c0.2,7,1.6,13.7,3.8,19.9h14.9V52.5z
	 M47.6,77.3H34.7c3.2,7,7.6,13.1,12.9,17.8L47.6,77.3L47.6,77.3z M39.6,93.9c-4.1-4.7-7.6-10.4-10.2-16.6H14
	C20,85.2,29,91.5,39.6,93.9z M76,52.5c-0.2,7-1.4,13.7-3.5,19.9l16.7,0c3.4-5.9,5.5-12.7,5.9-19.9L76,52.5L76,52.5z M52.4,72.4h14.9
	c2.2-6.2,3.5-12.9,3.8-19.9H52.4V72.4z M52.4,95.1c5.3-4.7,9.7-10.8,12.9-17.8H52.4V95.1z M86,77.3H70.7
	c-2.6,6.2-6.1,11.9-10.2,16.6C71,91.5,80,85.2,86,77.3z"/>
</svg>
