<?xml version="1.0" encoding="utf-8"?>
<!-- Generator: Adobe Illustrator 20.0.0, SVG Export Plug-In . SVG Version: 6.00 Build 0)  -->
<svg version="1.1" id="Isolation_Mode" xmlns="http://www.w3.org/2000/svg" xmlns:xlink="http://www.w3.org/1999/xlink" x="0px"
	 y="0px" viewBox="0 0 33.2 33.2" enable-background="new 0 0 33.2 33.2" xml:space="preserve">
<g>
	<g>
		<g>
			<path d="M16.6,0.2c-9,0-16.4,7.3-16.4,16.4c0,9,7.3,16.4,16.4,16.4c9,0,16.4-7.3,16.4-16.4C32.9,7.6,25.6,0.2,16.6,0.2z
				 M16.6,30.5c-7.7,0-13.9-6.2-13.9-13.9c0-7.7,6.2-13.9,13.9-13.9c7.7,0,13.9,6.2,13.9,13.9C30.5,24.3,24.3,30.5,16.6,30.5z"/>
		</g>
	</g>
	<g>
		<path d="M17.9,8.2c0.1,0.1,0.2,0.3,0.2,0.5v1.9c0,0.2-0.1,0.3-0.2,0.5c-0.1,0.1-0.3,0.2-0.5,0.2h-2.1c-0.2,0-0.3-0.1-0.5-0.2
			c-0.1-0.1-0.2-0.3-0.2-0.5V8.6c0-0.2,0.1-0.3,0.2-0.5C15,8,15.1,8,15.3,8h2.1C17.6,8,17.8,8,17.9,8.2z M17.8,25.5
			c-0.1,0.1-0.3,0.2-0.5,0.2h-1.9c-0.2,0-0.3-0.1-0.5-0.2c-0.1-0.1-0.2-0.3-0.2-0.5V13.4c0-0.2,0.1-0.3,0.2-0.5
			c0.1-0.1,0.3-0.2,0.5-0.2h1.9c0.2,0,0.3,0.1,0.5,0.2c0.1,0.1,0.2,0.3,0.2,0.5V25C18,25.2,17.9,25.3,17.8,25.5z"/>
	</g>
</g>
</svg>
