<svg id="Level_1" data-name="Level 1" xmlns="http://www.w3.org/2000/svg" viewBox="0 0 357.6 237"><defs><style>.cls-1,.cls-3{fill:none;stroke-miterlimit:10;stroke-width:0.88px;}.cls-1{stroke:#f5f4f8;}.cls-2,.cls-4{fill:#f5f4f8;}.cls-3{stroke:#b3adb8;}.cls-4{stroke:#5e5b60;stroke-miterlimit:3.86;}.cls-5,.cls-6{isolation:isolate;fill:#282629;font-family:OpenSans-Semibold, Open Sans;font-weight:700;}.cls-5{font-size:4.52px;}.cls-6{font-size:4px;}</style></defs><title>ACC_FloorPlans</title><polyline class="cls-1" points="15 136.8 15 160.6 27.8 173.3 47 178.2 52.3 182.2 63.4 182.1 74.9 182.1 85.7 190.1 96.5 191 101.6 197.7 106.9 201.1 112.6 209.4 111 216.3 111.7 221.8 115.5 226.9 117.6 226.9 117.6 230 119.3 230 119 229.9 260.4 230 260.4 230.7 260.4 235.8 273.9 235.8 273.9 229.4 282.1 229.4 282.1 235.6 341.9 235.7 341.9 229.3 345.9 229.3 346.8 229.2 348.9 229.2 348.9 207.3 352.3 207.3 352.2 174.8 356 174.8 356 160.7 351.5 160.7 351.5 136.1 354.4 136.1 354.4 133.1 355 133.1 355 110 354.3 110 354.2 106.9 351.6 106.8 351.6 103.1 356.1 103.1 356.1 88.9 349.4 88.9 349.4 76.1 342 76.3 342.4 22.6 19 22.4 19 47"/><path class="cls-2" d="M344.5,154.2l.1-77.9.2-58.5h-8.4V13.1l-61.7.5.1,2.3H274v1.3h-3.3V16h-1.2l-.2,1.3-8.1.1L261,16h-1.5v2.9h-4.3l.3-5.7H218.4l-.1,6.6-27.2-.1s-.1.9-.1,1-30.6.3-30.6.3V17l-34-4.7-.1-2.4H121l-.1-2.7-5,.1v8.6L99.8,16l.2-9.4H91.8v6.9l-41.4.1s0-7.6-.1-7.7-19.5.2-19.5.2v9.4l-13.6.1-.1,7.7H13.4l.1,23.9,4.3.1-.3,37-4.7-.1-.1,23.1-3.3-.2-.1,9.1,5.1.1,4.5,2.6,2.9,4.8v5.4l14.4.4v-3.7H29.1l-.4-22.7H96.3v4.1h16.5v-4.1h4.4V45h45.3V29.5h37l-.1,15.3h18.9l.1-17.5h16.3l.1,8.5,7.9.1V27.5l31-.3h7.6l50.3.1-.2,8.4h6c0,6.2-.1,10.8,0,75.3h-8.6v28.3h8.6v21.3h12.4v4h6.1V154.1ZM109.6,94.7h-69V25h68.9V94.7Z"/><polyline class="cls-3" points="14.3 137.1 8.9 137.1 4.2 134.2 1.4 129.7 1.4 123.8 4.1 119 9.4 116 9.4 107.2 12.7 107.2 12.7 84.2 17.6 84.3 17.7 47.3 13.4 47.2 13.4 38"/><polyline class="cls-3" points="91.8 13.6 50.3 13.3 50.3 5.9 44.8 5.9 44.8 5 30.8 5 30.8 3.8 2.2 3.8 2.2 23.5 3.4 23.6 3.4 38 13.4 38"/><polyline class="cls-3" points="126.6 12.2 160.6 16.9 160.6 21 191 21 191.1 19.7 218.3 19.8 218.4 13.2 336.4 13.2 336.4 17.8 341 17.8 341 12.2 357.1 12.2 357.1 76.3 356.1 76.3 344.6 76.3 344.5 154.2 356.1 154.2 356.1 164.7 350 164.7 349.9 160.7 337.5 160.7 337.6 157.6 328.9 139.4 328.9 111.1 336.9 73.1 337.5 35.8 331.5 35.8 331.7 27.4 242.8 27.6 242.8 36 234.9 35.9 234.8 27.3 218.5 27.3 218.4 44.8 199.5 44.8 162.4 44.8 117.2 45 117.2 103.2 112.8 103.2 112.8 107.3 96.4 107.3 96.4 103.2 38.3 103.2 36.3 125.9 36.3 129.3 21.9 129.1 19 134.4 14.5 137.1"/><polyline class="cls-3" points="126.5 12.3 126.5 9.8 121.2 9.8"/><polyline class="cls-3" points="121.2 9.7 121.2 7 116.2 7 116.2 3.8 99.8 3.8 99.8 6.6 91.8 6.6 91.8 13.6"/><path class="cls-3" d="M103.8,3.7V2.4A9.77,9.77,0,0,1,108,1.3s3.2.2,4.2,1.1V3.7"/><polygon id="clickable-8A" class="cls-4" points="135.5 29.4 131 29.4 131 27.5 126.3 27.5 126.3 41.3 131 41.3 131 40.4 135.5 40.4 135.5 29.4"/><rect id="clickable-8B" class="cls-4" x="135.5" y="29.4" width="7.3" height="11"/><polygon id="clickable-8C" class="cls-4" points="155 29.4 151.8 29.4 151.8 27.5 147.3 27.5 147.3 29.4 142.8 29.4 142.8 40.4 147.1 40.4 147.1 41.4 152 41.4 152 40.4 155 40.4 155 29.4"/><polygon id="clickable-9A" class="cls-4" points="168.2 29.2 168.2 27.5 165.9 27.5 165.9 29.2 162.4 29.2 162.4 44.8 171.9 44.8 171.9 29.2 168.2 29.2"/><polygon id="clickable-9B" class="cls-4" points="178.9 29.2 178.9 27.5 176.4 27.5 176.4 29.2 171.9 29.2 171.9 44.8 182.3 44.8 182.3 29.2 178.9 29.2"/><polygon id="clickable-9C" class="cls-4" points="197.4 27.5 197.4 29.2 194.1 29.2 194.1 27.4 186.7 27.4 186.7 29.2 182.3 29.2 182.3 44.8 199.6 44.8 199.6 27.5 197.4 27.5"/><polygon id="clickable-4A" class="cls-4" points="28.8 116.6 28.8 122.1 27.4 122.1 27.4 125.7 28.8 125.7 30.3 125.7 39.7 125.7 39.7 116.6 28.8 116.6"/><rect id="clickable-4B" class="cls-4" x="28.7" y="110.6" width="11" height="5.9"/><polygon id="clickable-4C" class="cls-4" points="28.7 103.1 28.7 107.3 27.6 107.3 27.6 109.5 28.7 109.5 28.7 110.6 39.7 110.6 39.7 103.1 28.7 103.1"/><polygon id="clickable-5A" class="cls-4" points="25.7 93.4 25.7 98.1 24.3 98.1 24.3 101.2 36.1 101.2 36.1 93.4 25.7 93.4"/><rect id="clickable-5B" class="cls-4" x="26" y="85" width="10.1" height="8.4"/><polygon id="clickable-5C" class="cls-4" points="36.9 79 36.1 79 36.1 76.3 26 76.3 26 79.1 24.3 79.1 24.3 81.6 26 81.6 26 85 36.1 85 36.1 81.5 36.9 81.5 36.9 79"/><polygon id="clickable-6A" class="cls-4" points="25.7 53.4 25.7 58.1 24.2 58.1 24.2 65 25.7 65 25.7 68.6 39.6 68.6 39.6 53.4 25.7 53.4"/><polygon id="clickable-6B" class="cls-4" points="25.7 40.6 25.7 45.3 24.2 45.3 24.2 49.7 25.7 49.7 25.7 53.4 39.6 53.4 39.6 40.6 25.7 40.6"/><polygon id="clickable-7" class="cls-4" points="44.8 5 30.8 5 30.8 15.5 34 15.5 34 16.4 41.9 16.4 41.9 15.5 44.8 15.5 44.8 5"/><path id="clickable-Austin_Suite" data-name="clickable-Austin Suite" class="cls-4" d="M112.2,3.7V2.5c0-.7-1.9-1.4-4.2-1.4s-4.2.6-4.2,1.4V3.7H99.9V15.9h3.9v1h8.4v-1h4V3.7Z"/><polygon id="clickable-10A" class="cls-4" points="202 19.9 200.8 19.9 200.8 21.5 196.8 21.5 196.8 19.9 193.9 19.9 193.9 21.4 191.1 21.5 191.1 6.3 202 6.3 202 19.9"/><polygon id="clickable-10B" class="cls-4" points="218.4 6.3 202 6.3 202 19.9 206.8 19.9 206.8 21.5 215.2 21.5 215.2 19.9 218.4 19.9 218.4 6.3"/><polygon id="clickable-10C" class="cls-4" points="275.3 17.3 259.5 17.3 259.5 18.9 255 18.9 255 3 275.3 3 275.3 17.3"/><rect id="clickable-Show_Office_12" data-name="clickable-Show Office 12" class="cls-4" x="326" y="73.1" width="11.5" height="13.3"/><rect id="clickable-Show_Office_13" data-name="clickable-Show Office 13" class="cls-4" x="326" y="86.5" width="11.5" height="12.4"/><rect id="clickable-Show_Office_14" data-name="clickable-Show Office 14" class="cls-4" x="326" y="98.9" width="11.5" height="12.4"/><rect id="clickable-Show_Office_15" data-name="clickable-Show Office 15" class="cls-4" x="326" y="140.13" width="11.5" height="8.43"/><rect id="clickable-Show_Office_16" data-name="clickable-Show Office 16" class="cls-4" x="326" y="148.5" width="11.5" height="9.1"/><rect class="cls-3" x="40.6" y="25" width="68.9" height="69.7"/><text class="cls-5" transform="translate(29.37 48.3)">6B</text><text class="cls-5" transform="translate(29.12 62.3)">6A</text><text class="cls-5" transform="translate(36.51 12)">7</text><text class="cls-5" transform="translate(27.82 98.6)">5A</text><text class="cls-5" transform="translate(30.87 122.45)">4A</text><text class="cls-5" transform="translate(30.87 114.85)">4B</text><text class="cls-5" transform="translate(30.93 108.15)">4C</text><text class="cls-5" transform="translate(27.82 90.5)">5B</text><text class="cls-5" transform="translate(27.88 81.95)">5C</text><text class="cls-6" transform="translate(100.84 9.15)">AUSTIN<tspan x="1.77" y="4">SUITE</tspan></text><text class="cls-5" transform="translate(128.12 36.7)">8A</text><text class="cls-5" transform="translate(164.37 38.45)">9A</text><text class="cls-5" transform="translate(174.32 38.45)">9B</text><text class="cls-5" transform="translate(188.23 38.45)">9C</text><text class="cls-5" transform="translate(192.48 15.2)">10A</text><text class="cls-5" transform="translate(206.13 15.2)">10B</text><text class="cls-5" transform="translate(261.14 12.25)">10C</text><text class="cls-5" transform="translate(136.37 36.7)">8B</text><text class="cls-5" transform="translate(146.18 36.7)">8C</text><text class="cls-5" transform="translate(327.93 81.05)">S12</text><text class="cls-5" transform="translate(327.93 94)">S13</text><text class="cls-5" transform="translate(327.93 106.4)">S14</text><text class="cls-5" transform="translate(327.93 146.07)">S15</text><text class="cls-5" transform="translate(327.93 154.66)">S16</text></svg>