<svg id="Level_1" data-name="Level 1" xmlns="http://www.w3.org/2000/svg" viewBox="0 0 357.6 237"><defs><style>.cls-1{fill:#fff;}.cls-1,.cls-2{stroke:#f5f4f8;}.cls-1,.cls-3{stroke-miterlimit:10;}.cls-2{fill:none;stroke-linecap:square;}.cls-2,.cls-4{stroke-miterlimit:3.86;}.cls-2,.cls-3{stroke-width:0.88px;}.cls-3,.cls-4,.cls-8{fill:#f5f4f8;}.cls-3,.cls-4{stroke:#b3adb8;}.cls-5,.cls-6,.cls-8{isolation:isolate;font-family:OpenSans-Semibold, Open Sans;font-weight:700;}.cls-5{font-size:4.52px;}.cls-5,.cls-6{fill:#282629;}.cls-6{font-size:4px;}.cls-7{letter-spacing:-0.1em;}.cls-8{font-size:11px;}</style></defs><title>ACC_FloorPlans</title><polygon id="Exhibit_Hall_4" data-name="Exhibit Hall 4" class="cls-1" points="269.9 142.3 226.9 142.2 226.9 43.7 248.1 43.7 248.1 33.4 270.2 33.4 270.2 29.9 302.1 29.9 302.1 33.3 324.8 33.3 324.9 87.8 328.8 87.8 328.8 108.8 323.8 108.8 323.8 143.4 269.9 142.3"/><polygon id="Exhibit_Hall_3" data-name="Exhibit Hall 3" class="cls-1" points="160.9 43.7 160.9 108.9 160.8 108.9 160.9 142.2 226.9 142.2 226.9 43.7 160.9 43.7"/><polygon id="Exhibit_Hall_2" data-name="Exhibit Hall 2" class="cls-1" points="117.1 43.7 117 108.9 117 108.9 117 142.2 160.9 142.2 160.9 43.7 160.9 43.7 117.1 43.7"/><polygon id="Exhibit_Hall_1" data-name="Exhibit Hall 1" class="cls-1" points="117.1 21.7 40.8 21.7 40.8 98.6 117 98.7 117.1 21.7"/><path class="cls-2" d="M52,11.7V3.8H46.2v-1H31.7V1.6H1.9V22.1H3.1L3.2,37H13.5l.1,9.6,4.6.1-.1,38.2-5.3.1v23.8H9.4v9.5l-5.5,2.8L.6,126.4v5.7l3.4,5,4.8,2.7h5.7v14l12.9,12.6,19.1,4.9,5.4,5.2L63,175.1H74.5L85.2,183l10.2.9,5.7,6.6,5.3,3.4,5.7,8.2-1.6,6.8,1.3,9.7,3.1,5.7h2.2V231h37.1v-.3h29.6l.1-1.2h12.5l.1,1.1h62.2l-.1,5.7h13.6v-17l63.6-.3h10.9V197.6h3.2l.1-44.1h6.5V141.8H350V130.9h5.3v-3.1h.6V105h-.7v-3.2h-5.3V91h6.7V78.9H346.3V66.3h6.8V65h.9l.1-50h-5.9l.1-2.2H341v2.4h-6v1.6h-6.5V6.5H316.9v6.4h-41V4H258.2v8.8h-8.5V1.5H233.4V13.2H227v3.5h-5.5V15.4H204.6V19H166.8V15.2l-35.4-4.9m-.1.1V7.8h-5.6m0,0V4.9h-5.6l.1-3-16-.2V4.5l-9-.1v7.3H52"/><polygon class="cls-3" points="13.8 32.8 13.8 46.3 28 46.3 28 87.6 41 87.6 41 39 41 34.6 41 32.8 13.8 32.8"/><polygon id="clickable-ML_Show_Office_1" data-name="clickable-ML Show Office 1" class="cls-4" points="31.6 70.3 31.6 72.5 30.9 72.5 30.9 80.6 31.6 80.6 31.6 83 40.9 83 40.9 70.3 31.6 70.3"/><rect id="clickable-ML_Show_Office_2" data-name="clickable-ML Show Office 2" class="cls-4" x="30.8" y="62.1" width="10.1" height="8.2"/><polygon id="clickable-ML_Show_Office_5" data-name="clickable-ML Show Office 5" class="cls-4" points="32.1 32.8 31.8 32.8 30.9 32.8 30.9 33.7 31.8 33.7 31.8 35.6 30.9 35.6 30.9 41 31.8 41 31.8 43.3 30.8 43.3 30.8 44.1 31.8 44.1 32 44.1 40.9 44.1 40.9 32.8 32.1 32.8"/><polygon class="cls-3" points="219.1 29.1 128.1 29.1 128.1 8.8 116.9 8.8 116.9 43.7 219.1 43.7 219.1 29.1"/><rect id="clickable-ML_Show_Office_6" data-name="clickable-ML Show Office 6" class="cls-4" x="116.9" y="34.3" width="11.2" height="9.4"/><rect id="clickable-ML_Show_Office_7" data-name="clickable-ML Show Office 7" class="cls-4" x="128.1" y="34.3" width="10.8" height="9.4"/><polygon id="clickable-ML_Show_Office_8" data-name="clickable-ML Show Office 8" class="cls-4" points="173.9 35.4 173.9 34.3 164.9 34.3 164.9 35.4 163 35.4 163 43.6 176.1 43.6 176.1 35.4 173.9 35.4"/><rect id="clickable-ML_Show_Office_9" data-name="clickable-ML Show Office 9" class="cls-4" x="176.1" y="34.4" width="6.2" height="9.2"/><rect id="clickable-ML_Show_Office_10" data-name="clickable-ML Show Office 10" class="cls-4" x="182.3" y="34.4" width="6.1" height="9.2"/><rect id="clickable-ML_Show_Office_11" data-name="clickable-ML Show Office 11" class="cls-4" x="188.4" y="34.4" width="5.1" height="9.2"/><text class="cls-5" transform="translate(32.48 39.75)">M5</text><text class="cls-5" transform="translate(32.48 67.5)">M2</text><text class="cls-5" transform="translate(32.53 77.95)">M1</text><text class="cls-5" transform="translate(119.13 40.3)">M6</text><text class="cls-5" transform="translate(130.13 40.3)">M7</text><text class="cls-5" transform="translate(166.18 40.25)">M8</text><text class="cls-6" transform="translate(177.35 38.3)">M<tspan x="0.7" y="3.7">9</tspan></text><text class="cls-6" transform="translate(183.5 38.3)">M<tspan class="cls-7"><tspan x="-0.24" y="3.7">10</tspan></tspan></text><text class="cls-6" transform="translate(189.1 38.3)">M<tspan class="cls-7"><tspan x="-0.24" y="3.7">11</tspan></tspan></text><rect id="Exhibit_Hall_5" data-name="Exhibit Hall 5" class="cls-1" x="269.9" y="142.3" width="65.8" height="87.2"/><text class="cls-8" transform="translate(66.84 64.36)">EH-1</text><text class="cls-8" transform="translate(126.84 97.11)">EH-2</text><text class="cls-8" transform="translate(181.74 97.11)">EH-3</text><text class="cls-8" transform="translate(265.74 90.81)">EH-4</text><text class="cls-8" transform="translate(290.69 190.06)">EH-5</text></svg>