<?xml version="1.0" encoding="utf-8"?>
<!-- Generator: Adobe Illustrator 20.0.0, SVG Export Plug-In . SVG Version: 6.00 Build 0)  -->
<svg version="1.1" id="Layer_1" xmlns="http://www.w3.org/2000/svg" xmlns:xlink="http://www.w3.org/1999/xlink" x="0px" y="0px"
	 viewBox="0 0 102.2 39.2" style="enable-background:new 0 0 102.2 39.2;" xml:space="preserve">
<style type="text/css">
	.st0{fill:#444046;}
</style>
<g>
	<path class="st0" d="M9.3,17.7l-1.2,0.4c-0.8-0.8-1.9-1.2-3.3-1.2c-1.1,0-1.9,0.3-2.6,0.8c-0.7,0.5-1,1.2-1,2.1
		c0,0.9,0.3,1.6,1,2.1C3,22.4,3.9,22.6,5,22.6c1.4,0,2.4-0.4,3.2-1.3L9.3,22c-0.6,0.6-1.2,1.1-1.9,1.4c-0.7,0.3-1.5,0.4-2.5,0.4
		c-1.4,0-2.5-0.3-3.4-1C0.5,22,0,21,0,19.7c0-1.2,0.5-2.2,1.6-3c0.9-0.7,2-1,3.4-1C6.8,15.7,8.3,16.3,9.3,17.7z"/>
	<path class="st0" d="M21.3,19.7c0,1.3-0.5,2.3-1.5,3c-0.9,0.7-2,1-3.4,1c-1.4,0-2.5-0.3-3.4-1c-1-0.8-1.5-1.8-1.5-3
		c0-1.2,0.5-2.2,1.6-3c0.9-0.7,2-1,3.4-1c1.3,0,2.4,0.3,3.4,1C20.8,17.5,21.3,18.5,21.3,19.7z M20,19.7c0-0.9-0.4-1.6-1.1-2.2
		c-0.7-0.5-1.5-0.7-2.4-0.7c-1.1,0-1.9,0.3-2.6,0.8c-0.7,0.5-1,1.2-1,2.1c0,0.9,0.3,1.6,1,2.1c0.7,0.5,1.5,0.8,2.6,0.8
		c1.1,0,2-0.3,2.6-0.8C19.7,21.3,20,20.6,20,19.7z"/>
	<path class="st0" d="M32.6,23.6H31l-5.9-6.3v6.3h-1.3v-7.7h1.6l5.8,6.3v-6.3h1.3V23.6z"/>
	<path class="st0" d="M44,15.9l-4.1,7.7h-1.5l-4.1-7.7h1.4l3.4,6.4l3.4-6.4H44z"/>
	<path class="st0" d="M53.8,23.6h-8v-7.7h7.7v1.1h-6.5v2h4.5v1.1h-4.5v2.3h6.7V23.6z"/>
	<path class="st0" d="M64.9,23.6h-1.6l-5.8-6.3v6.3h-1.3v-7.7h1.6l5.8,6.3v-6.3h1.3V23.6z"/>
	<path class="st0" d="M75.4,17.1h-3.7v6.5h-1.3v-6.5h-3.7v-1.1h8.6V17.1z"/>
	<path class="st0" d="M78.5,23.6h-1.3v-7.7h1.3V23.6z"/>
	<path class="st0" d="M91,19.7c0,1.3-0.5,2.3-1.5,3c-0.9,0.7-2,1-3.4,1c-1.4,0-2.5-0.3-3.4-1c-1-0.8-1.5-1.8-1.5-3
		c0-1.2,0.5-2.2,1.6-3c0.9-0.7,2-1,3.4-1c1.3,0,2.4,0.3,3.4,1C90.4,17.5,91,18.5,91,19.7z M89.6,19.7c0-0.9-0.4-1.6-1.1-2.2
		c-0.7-0.5-1.5-0.7-2.4-0.7c-1.1,0-1.9,0.3-2.6,0.8c-0.7,0.5-1,1.2-1,2.1c0,0.9,0.3,1.6,1,2.1c0.7,0.5,1.5,0.8,2.6,0.8
		c1.1,0,2-0.3,2.6-0.8C89.3,21.3,89.6,20.6,89.6,19.7z"/>
	<path class="st0" d="M102.2,23.6h-1.6l-5.8-6.3v6.3h-1.3v-7.7h1.6l5.9,6.3v-6.3h1.3V23.6z"/>
</g>
<g>
	<path class="st0" d="M10.3,8.4H8.9L7.9,6.5H2.4L1.5,8.4H0l4.3-8.2H6L10.3,8.4z M7.3,5.3l-2.1-4l-2.1,4H7.3z"/>
	<path class="st0" d="M22.3,5.7c0,0.8-0.4,1.5-1.2,2.1c-0.8,0.5-2,0.8-3.4,0.8c-1.4,0-2.5-0.3-3.4-0.8c-0.8-0.5-1.2-1.2-1.2-2.1V0.2
		h1.4v5.2c0,0.6,0.3,1.1,0.8,1.5c0.6,0.3,1.4,0.5,2.4,0.5c1.1,0,1.9-0.2,2.4-0.5c0.6-0.3,0.8-0.8,0.8-1.5V0.2h1.4V5.7z"/>
	<path class="st0" d="M33.4,2.1c-1.2-0.6-2.4-0.9-3.7-0.9c-0.8,0-1.5,0.1-1.9,0.3c-0.4,0.2-0.7,0.5-0.7,0.8c0,0.4,0.2,0.6,0.7,0.8
		c0.3,0.1,0.9,0.2,1.7,0.2c1.1,0.1,1.9,0.1,2.2,0.2c1,0.1,1.8,0.4,2.3,0.8c0.5,0.4,0.7,0.9,0.7,1.6c0,0.9-0.4,1.5-1.2,2
		c-0.8,0.5-1.9,0.7-3.3,0.7c-2.1,0-3.7-0.5-4.9-1.4l0.7-1c1.3,0.8,2.7,1.2,4.1,1.2c1,0,1.7-0.1,2.2-0.4c0.5-0.3,0.8-0.6,0.8-1
		c0-0.5-0.3-0.9-1-1c-0.3-0.1-1.3-0.2-2.8-0.3c-1.3-0.1-2.3-0.3-2.8-0.5c-0.6-0.3-0.9-0.8-0.9-1.6c0-0.8,0.4-1.4,1.1-1.8
		c0.7-0.4,1.7-0.7,3-0.7c1.8,0,3.2,0.4,4.4,1.2L33.4,2.1z"/>
	<path class="st0" d="M46,1.4h-3.9v6.9h-1.4V1.4h-3.9V0.2H46V1.4z"/>
	<path class="st0" d="M50.2,8.4h-1.4V0.2h1.4V8.4z"/>
	<path class="st0" d="M63.5,8.4h-1.7l-6.2-6.7v6.7h-1.4V0.2h1.7l6.2,6.7V0.2h1.4V8.4z"/>
</g>
<g>
	<path class="st0" d="M9.3,33.1l-1.2,0.4c-0.8-0.8-1.9-1.2-3.3-1.2c-1.1,0-1.9,0.3-2.6,0.8c-0.7,0.5-1,1.2-1,2.1
		c0,0.9,0.3,1.6,1,2.1C3,37.8,3.9,38.1,5,38.1c1.4,0,2.4-0.4,3.2-1.3l1.1,0.6c-0.5,0.6-1.2,1.1-1.9,1.4c-0.7,0.3-1.5,0.4-2.5,0.4
		c-1.4,0-2.5-0.3-3.4-1c-1-0.8-1.5-1.8-1.5-3c0-1.2,0.5-2.2,1.6-3c0.9-0.7,2-1,3.4-1C6.8,31.1,8.3,31.8,9.3,33.1z"/>
	<path class="st0" d="M19.9,39h-8v-7.7h7.7v1.1h-6.5v2h4.5v1.1h-4.5v2.3h6.7V39z"/>
	<path class="st0" d="M30.9,39h-1.6l-5.8-6.3V39h-1.3v-7.7h1.6l5.9,6.3v-6.3h1.3V39z"/>
	<path class="st0" d="M41.4,32.5h-3.7V39h-1.3v-6.5h-3.7v-1.1h8.6V32.5z"/>
	<path class="st0" d="M51.4,39h-8v-7.7h7.7v1.1h-6.5v2h4.5v1.1h-4.5v2.3h6.7V39z"/>
	<path class="st0" d="M62.4,39h-1.5l-2.1-2.9H55V39h-1.3v-7.7h6c0.8,0,1.4,0.2,1.9,0.7c0.5,0.4,0.7,1,0.7,1.8c0,0.7-0.2,1.2-0.6,1.6
		c-0.3,0.4-0.8,0.6-1.4,0.7L62.4,39z M59.5,34.9c1,0,1.5-0.4,1.5-1.2c0-0.8-0.5-1.3-1.6-1.3H55v2.5H59.5z"/>
</g>
</svg>
