<svg id="Layer_1" data-name="Layer 1" xmlns="http://www.w3.org/2000/svg" viewBox="0 0 100 39"><defs><style>.cls-1{fill:#282629;}</style></defs><path class="cls-1" d="M10.48,8.6H8.9L8,7h-5L2.24,8.6H.66l4-7.38H6.46ZM7.33,5.72,5.58,2.45,3.81,5.72Z"/><path class="cls-1" d="M20.4,6.18a2.19,2.19,0,0,1-1.16,1.9,5.77,5.77,0,0,1-3.12.74A5.8,5.8,0,0,1,13,8.08a2.19,2.19,0,0,1-1.16-1.9v-5h1.44V5.89q0,1.63,2.86,1.63T19,5.89V1.22H20.4Z"/><path class="cls-1" d="M29.52,3a6.64,6.64,0,0,0-3.13-.76q-2.46,0-2.46.88,0,.52.92.67l2.52.23a6.5,6.5,0,0,1,2.58.65,1.71,1.71,0,0,1,.85,1.57,2,2,0,0,1-1.06,1.84,6,6,0,0,1-3.08.65,7.33,7.33,0,0,1-4.55-1.3l.78-1a6.36,6.36,0,0,0,3.74,1.07,4.7,4.7,0,0,0,1.93-.32q.68-.32.68-.85t-.84-.83A7.08,7.08,0,0,0,27,5.35q-1.54-.07-1.88-.11a4.28,4.28,0,0,1-2-.59,1.53,1.53,0,0,1-.65-1.33,1.88,1.88,0,0,1,1-1.67A5.72,5.72,0,0,1,26.36,1a6.93,6.93,0,0,1,4,1.08Z"/><path class="cls-1" d="M40.14,2.52H36.61V8.6H35.17V2.52H31.64V1.22h8.5Z"/><path class="cls-1" d="M43.14,8.6H41.7V1.22h1.44Z"/><path class="cls-1" d="M54.26,8.6H52.11l-5-6.16V8.6H45.66V1.22H47.8l5,6.16V1.22h1.44Z"/><path class="cls-1" d="M10.59,17.4l-1.32.46a4.1,4.1,0,0,0-3-1.18,4,4,0,0,0-2.51.72,2.37,2.37,0,0,0,0,3.78,4.06,4.06,0,0,0,2.53.72,4,4,0,0,0,3-1.2l1.24.66a5.46,5.46,0,0,1-4.28,1.84,5.51,5.51,0,0,1-3.57-1.1,3.55,3.55,0,0,1,.19-5.73,5.44,5.44,0,0,1,3.3-1A5.48,5.48,0,0,1,10.59,17.4Z"/><path class="cls-1" d="M21.87,19.29a3.51,3.51,0,0,1-1.55,3,5.42,5.42,0,0,1-3.3,1,5.47,5.47,0,0,1-3.31-1,3.56,3.56,0,0,1,0-5.88,5.46,5.46,0,0,1,3.3-1,5.44,5.44,0,0,1,3.29,1A3.48,3.48,0,0,1,21.87,19.29Zm-1.5,0a2.3,2.3,0,0,0-.94-1.88A3.78,3.78,0,0,0,17,16.66a3.81,3.81,0,0,0-2.43.75,2.38,2.38,0,0,0,0,3.78,3.86,3.86,0,0,0,2.45.73,3.81,3.81,0,0,0,2.43-.73A2.32,2.32,0,0,0,20.37,19.29Z"/><path class="cls-1" d="M32.55,23H30.4l-5-6.16V23H23.95V15.62h2.15l5,6.16V15.62h1.44Z"/><path class="cls-1" d="M43.69,15.62,39.61,23H38l-4.08-7.38h1.59l3.32,6.12,3.32-6.12Z"/><path class="cls-1" d="M53,23H45V15.62h7.67v1.3H46.45v1.6h4.33v1.3H46.45v1.9H53Z"/><path class="cls-1" d="M63.42,23H61.27l-5-6.16V23H54.81V15.62H57l5,6.16V15.62h1.44Z"/><path class="cls-1" d="M73.47,16.92H69.94V23H68.5V16.92H65v-1.3h8.5Z"/><path class="cls-1" d="M76.47,23H75V15.62h1.44Z"/><path class="cls-1" d="M88.25,19.29a3.51,3.51,0,0,1-1.55,3,6.11,6.11,0,0,1-6.61,0,3.56,3.56,0,0,1,0-5.88,5.95,5.95,0,0,1,6.59,0A3.48,3.48,0,0,1,88.25,19.29Zm-1.5,0a2.3,2.3,0,0,0-.94-1.88,4.33,4.33,0,0,0-4.85,0,2.38,2.38,0,0,0,0,3.78,3.86,3.86,0,0,0,2.45.73,3.81,3.81,0,0,0,2.43-.73A2.31,2.31,0,0,0,86.75,19.29Z"/><path class="cls-1" d="M98.93,23H96.79l-5-6.16V23H90.33V15.62h2.15l5,6.16V15.62h1.44Z"/><path class="cls-1" d="M10.59,31.8l-1.32.46a4.1,4.1,0,0,0-3-1.18,4,4,0,0,0-2.51.72,2.37,2.37,0,0,0,0,3.78,4.06,4.06,0,0,0,2.53.72,4,4,0,0,0,3-1.2l1.24.66a5.46,5.46,0,0,1-4.28,1.84,5.51,5.51,0,0,1-3.57-1.1,3.55,3.55,0,0,1,.19-5.73,5.44,5.44,0,0,1,3.3-1A5.48,5.48,0,0,1,10.59,31.8Z"/><path class="cls-1" d="M20.55,37.4H12.61V30h7.67v1.3H14v1.6h4.33v1.3H14v1.9h6.5Z"/><path class="cls-1" d="M31,37.4H28.87l-5-6.16V37.4H22.41V30h2.15l5,6.16V30H31Z"/><path class="cls-1" d="M41.07,31.32H37.54V37.4H36.1V31.32H32.58V30h8.5Z"/><path class="cls-1" d="M50.58,37.4H42.63V30H50.3v1.3H44.07v1.6H48.4v1.3H44.07v1.9h6.5Z"/><path class="cls-1" d="M61.12,37.4H59.47l-1.93-2.71H53.88V37.4H52.43V30h6a2.67,2.67,0,0,1,1.87.64,2.2,2.2,0,0,1,.7,1.7,2.1,2.1,0,0,1-1.84,2.24Zm-2.94-4q1.31,0,1.31-1T58.1,31.32H53.88v2.08Z"/></svg>