<svg id="Layer_1" data-name="Layer 1" xmlns="http://www.w3.org/2000/svg" viewBox="0 0 62 39"><defs><style>.cls-1{fill:#282629;}</style></defs><path class="cls-1" d="M6.76,1.29a2.67,2.67,0,0,1,1.87.64,2.2,2.2,0,0,1,.7,1.7A2.12,2.12,0,0,1,8.6,5.35,3.17,3.17,0,0,1,6.52,6H2.23V8.67H.79V1.29ZM6.54,4.66q1.31,0,1.31-1T6.46,2.58H2.23V4.66Z"/><path class="cls-1" d="M19.55,8.67H18l-.85-1.58h-5l-.85,1.58H9.72l4-7.38h1.79ZM16.4,5.79,14.64,2.52,12.88,5.79Z"/><path class="cls-1" d="M28.1,8.67H21V1.29H22.4V7.37h5.7Z"/><path class="cls-1" d="M40,8.67H38.58l0-6.07-3.71,5-3.7-5.08,0,0V8.67H29.66V1.29h2.16l3,4.17,3-4.17H40Z"/><path class="cls-1" d="M50.49,8.67H42.54V1.29h7.67v1.3H44v1.6h4.33v1.3H44v1.9h6.5Z"/><path class="cls-1" d="M61,8.67H59.38L57.45,6H53.79V8.67H52.34V1.29h6a2.67,2.67,0,0,1,1.87.64,2.2,2.2,0,0,1,.7,1.7A2.1,2.1,0,0,1,59,5.87Zm-2.94-4q1.31,0,1.31-1T58,2.58H53.79V4.66Z"/><path class="cls-1" d="M8.74,23.07H.79V15.69H8.46V17H2.23v1.6H6.57v1.3H2.23v1.9h6.5Z"/><path class="cls-1" d="M19.21,15.69l-4.08,7.38H13.48L9.4,15.69H11l3.32,6.12,3.32-6.12Z"/><path class="cls-1" d="M28.48,23.07H20.53V15.69H28.2V17H22v1.6h4.33v1.3H22v1.9h6.5Z"/><path class="cls-1" d="M38.94,23.07H36.79l-5-6.16v6.16H30.34V15.69h2.15l5,6.16V15.69h1.44Z"/><path class="cls-1" d="M49,17H45.47v6.08H44V17H40.5v-1.3H49Z"/><path class="cls-1" d="M57.24,17.51a6.64,6.64,0,0,0-3.13-.76q-2.46,0-2.46.88,0,.52.92.67l2.52.23a6.48,6.48,0,0,1,2.58.65,1.71,1.71,0,0,1,.85,1.57,2,2,0,0,1-1.06,1.84,6,6,0,0,1-3.08.65,7.32,7.32,0,0,1-4.55-1.3l.78-1A6.36,6.36,0,0,0,54.36,22a4.71,4.71,0,0,0,1.93-.32q.68-.32.68-.85T56.14,20a7,7,0,0,0-1.45-.18q-1.54-.07-1.88-.11a4.27,4.27,0,0,1-2-.59,1.52,1.52,0,0,1-.65-1.33,1.88,1.88,0,0,1,1-1.67,5.72,5.72,0,0,1,2.91-.62,6.93,6.93,0,0,1,4,1.08Z"/><path class="cls-1" d="M9.63,31.86l-1.32.46a4.1,4.1,0,0,0-3-1.18,4,4,0,0,0-2.51.72,2.37,2.37,0,0,0,0,3.78,4.06,4.06,0,0,0,2.53.72,4,4,0,0,0,3-1.2l1.24.66a5.46,5.46,0,0,1-4.28,1.84,5.51,5.51,0,0,1-3.57-1.1,3.55,3.55,0,0,1,.19-5.73,5.44,5.44,0,0,1,3.3-1A5.48,5.48,0,0,1,9.63,31.86Z"/><path class="cls-1" d="M19.59,37.47H11.64V30.09h7.67v1.3H13.08V33h4.33v1.3H13.08v1.9h6.5Z"/><path class="cls-1" d="M30,37.47H27.9l-5-6.16v6.16H21.44V30.09h2.15l5,6.16V30.09H30Z"/><path class="cls-1" d="M40.11,31.38H36.58v6.08H35.14V31.38H31.61v-1.3h8.5Z"/><path class="cls-1" d="M49.61,37.47H41.67V30.09h7.67v1.3H43.11V33h4.33v1.3H43.11v1.9h6.5Z"/><path class="cls-1" d="M60.16,37.47H58.51l-1.93-2.71H52.91v2.71H51.47V30.09h6a2.67,2.67,0,0,1,1.87.64,2.2,2.2,0,0,1,.7,1.7,2.1,2.1,0,0,1-1.84,2.24Zm-2.94-4q1.31,0,1.31-1t-1.39-1.07H52.91v2.08Z"/></svg>